<svg id="Layer_1" data-name="Layer 1" xmlns="http://www.w3.org/2000/svg" viewBox="0 0 64 64"><defs><style>.cls-1{fill:#1035ff;}</style></defs><path class="cls-1" d="M39.26,28.77c.84,0,1.33,0,1.81,0,3.19-.18,6.39-.39,9.58-.55a8,8,0,0,1,2.12.15c1.94.41,2.74,1.3,2.65,3.29-.16,3.45-.43,6.89-.71,10.33-.22,2.68-.51,5.36-.77,8-.23,2.37-1.6,3.75-3.64,3.64S46.88,51.93,47,49.51c.27-4.36.64-8.71,1-13.06,0-.25,0-.5,0-1l-4.56.36c2.66,7.45,2.24,14.29-3.21,20.38l-4.33-4.53c1.81-2.84,3.25-5.79,2.75-9.26a12,12,0,0,0-3.72-7.15,11.43,11.43,0,0,0-15.69-.36l-4.5-4.5a16.29,16.29,0,0,1,7.78-4.24,4.91,4.91,0,0,0,2.36-1.39c2.59-2.85,5.08-5.79,7.6-8.71a2.12,2.12,0,0,0,.19-.47c-1.5-.9-3-1.84-4.6-2.7-.19-.11-.69.1-.91.31-1.73,1.56-3.43,3.15-5.12,4.74a3.82,3.82,0,0,1-5,.22,3.78,3.78,0,0,1,.08-5.37q3.73-3.36,7.53-6.64a3.82,3.82,0,0,1,4.9-.55c4.52,2.62,9,5.29,13.51,7.94.61.36,1.24.69,1.85,1,2.6,1.54,3.08,4.28,1.1,6.57C43.87,23.6,41.68,26,39.26,28.77Z"/><path class="cls-1" d="M12.64,32.68C14,34,15.38,35.24,16.58,36.6a1.91,1.91,0,0,1,0,1.66,11.67,11.67,0,0,0-.23,10.56c2.89,6.06,9.78,8.39,16.16,5.39a1.6,1.6,0,0,1,2.2.4c1.08,1.13,2.28,2.15,3.45,3.24a17.62,17.62,0,0,1-22.94-.2C7.4,50.75,6.42,40,12.64,32.68Z"/><path class="cls-1" d="M47.9,13.67a6,6,0,0,1-5.72-5.94A5.79,5.79,0,0,1,48,2a5.7,5.7,0,0,1,5.78,6A5.88,5.88,0,0,1,47.9,13.67Z"/></svg>