<svg id="Layer_1" data-name="Layer 1" xmlns="http://www.w3.org/2000/svg" viewBox="0 0 64 64"><defs><style>.cls-1{fill:#02a1fe;}.cls-2{fill:#feb440;}</style></defs><path class="cls-1" d="M39.56,21.47a47,47,0,0,0,13.58,2.69c2,.15,4,.17,6,.29,2.18.13,3.2,1.5,2.72,3.64q-2,9-4,18C56,53.91,48.34,61,40.35,61.93c-3.84.46-6.89-1.3-9.46-4a23,23,0,0,1-5.54-10.09c-.09-.32-.2-.63-.3-.94a22.9,22.9,0,0,1,.41-10c.4-1.4.63-2.85.93-4.27A44.21,44.21,0,0,0,27.62,27a63.85,63.85,0,0,0,1.51-6.54c.81-2.13,1.88-2.58,4.36-1.81A28.27,28.27,0,0,0,39.56,21.47ZM41,53.56a15.06,15.06,0,0,0,9.59-4c.61-.55,1.21-1.37.7-2.26s-1.38-.55-2.17-.35a18.72,18.72,0,0,1-7.14.75,18,18,0,0,1-10-4.59c-.57-.52-1.24-1.25-2.09-.63s-.65,1.5-.35,2.34A14.19,14.19,0,0,0,33.1,50,10.43,10.43,0,0,0,41,53.56Zm-.69-18.33a5.55,5.55,0,0,0-10.29-2.45c-.4.83-.11,1.32.8,1.28a15.11,15.11,0,0,1,8.33,1.86C40.06,36.41,40.26,35.81,40.35,35.23Zm10.16-1.65a5.46,5.46,0,0,0-4.6,2.24c-.3.36-.68.76-.48,1.26s.87.46,1.36.44a14.78,14.78,0,0,1,7.52,1.69c.39.2.84.62,1.28.17s.24-.9.15-1.36A5.29,5.29,0,0,0,50.51,33.58Z"/><path class="cls-2" d="M29.13,20.49A63.85,63.85,0,0,1,27.62,27a12.81,12.81,0,0,0-14.51,8.46c-.3.92-.61,1.95.34,2.6s1.66-.26,2.31-.83a17.66,17.66,0,0,1,10.63-4.55c-.3,1.42-.53,2.87-.93,4.27a22.9,22.9,0,0,0-.41,10c-5.71-.33-10-3.32-13.84-7.28C7.7,36,6.42,31.39,5.43,26.6S3.27,16.82,2.18,11.93A2.61,2.61,0,0,1,4.1,8.53a8,8,0,0,1,2.39-.27c6.56-.14,13-.8,19.23-3.13A56,56,0,0,0,31.4,2.52c2.24-1.14,3.91-.38,4.46,2.06q1.85,8.1,3.65,16.19a4,4,0,0,1,.05.7,28.27,28.27,0,0,1-6.07-2.79A5.86,5.86,0,0,0,35,15.25c.09-.87-.27-1.33-1.17-.84a15.48,15.48,0,0,1-8.32,1.87c-.44,0-.89,0-1.11.44s.09.81.34,1.15A6.41,6.41,0,0,0,29.13,20.49Zm-18.61-.57h-1c-.43,0-.91-.09-1.11.4s.1.73.31,1.05a5.57,5.57,0,0,0,5.92,2.43,5.53,5.53,0,0,0,4.41-4.64c.06-.45.2-1-.3-1.29s-.8.09-1.16.27A15.48,15.48,0,0,1,10.52,19.92Z"/></svg>