<svg id="Layer_1" data-name="Layer 1" xmlns="http://www.w3.org/2000/svg" viewBox="0 0 64 64"><defs><style>.cls-1{fill:#feb5a4;}.cls-2{fill:#faaa9c;}.cls-3{fill:#fa3c8e;}.cls-4{fill:#c95ff4;}.cls-5{fill:#47abe8;}</style></defs><path class="cls-1" d="M40.78,43.77,39.4,44.92c-.66,1.86.12,3.4,1,4.94a6.89,6.89,0,0,1,1,5.06,6.2,6.2,0,0,1-5.19,4.85c-.72-.69-1.45,0-2.16,0-4,.07-7.53-1.75-11.1-3.14-2.68-1-4.93-3-7.16-4.87-.65-.54-1.61-.92-1.89-1.89-.12-.46.63-.57.32-1.35-.71-1.07-2.49-1.78-2.67-3.74,2.36-.05,4.49-.87,6.7-1.25.58-.11.84-.3.66-.9,3.15-3.22,3.28-5.74.42-8.22.16-1-.5-1.47-1.27-1.69-3.06-.67-5,1.29-7.22,3l-.09,1.38L9.43,38a3.18,3.18,0,0,1-1.84-.74,15.13,15.13,0,0,1-.17-11.39c-.47-.59-1.18-.18-1.48-.79a4.89,4.89,0,0,1,.08-2C7.45,22.49,7.28,21,7.6,19.77c.32,0,.57-.06.81-.1s.48-.11.73-.16c.84-4.24,2.09-8.16,6.55-10.22.09-.21-.16-.72.29-1.17,1.53-.19,3.37.12,4.22-1.8.83.06,1.67.55,2.45-.17-.77-.51-.77-.51-2.47-.61A16.62,16.62,0,0,1,26.9,3.83,32.2,32.2,0,0,1,43.38,6.48a38.12,38.12,0,0,1,13,9.14C60.4,20,63,25.14,63,31.22a12.26,12.26,0,0,1-5.09,9.94,2,2,0,0,1-1.25.51c-.43-.43-.95-.24-1.38-.22s-.41.78-1.21.86c-1.27-.1-2.84.3-4.38.25-2.43-.08-4.84.18-7.27.11C41.78,42.65,40.78,42.6,40.78,43.77Zm-21.09-17A2.07,2.07,0,0,0,21.36,26c.22-.51-.08-.84-.24-1.2a8.29,8.29,0,0,0-.27-3.57.38.38,0,0,0,.19-.5l-.47-.13a.59.59,0,0,1,0-.23c.14-.47-.16-1,.33-1.48.58.25.49,1,.92,1.32,2.88.14,5.75.93,8.64-.15a1.5,1.5,0,0,0,1.16-1.62c0-.48.5-.59.75-.9.51-.08.47-.48.5-.85.89-2,.16-3.75-.8-5.47.21-.1.51-.07.65-.54a1.82,1.82,0,0,1-1.27-1c-.25-.54-.91-.9-1.35-1.31-3,.42-4.64.67-4.88,2.72l0,0c-.54.14-.85-.45-1.37-.48.11,1.48-.95,2-2.07,2.66L20.44,18a3,3,0,0,1-1.87,0c-.58-.13-1.32-.51-1.68.42l-1.21,0c-.12-.76-.79-.7-1.18-.54A5.58,5.58,0,0,0,12,19.29c-1,1.43-2.53,2.44-3.25,4l-.32,2.2L9.56,28c.57.41,1-.16,1.53.11.66.84,1.83,1,2.63,1.61.68-.25,1.27-.43,1.82-.68a6.48,6.48,0,0,1,1.8-.22c1.22-.18,2.29-.57,2.33-2.09Zm24.75-1.55-.15.19.19.18c-.13.26-.24.54-.4.8a6.53,6.53,0,0,0,.09,7.38c1.36,2.2,3.45,2.82,5.76,3.14l-.37.47c4.25.3,7.69-1.28,9.19-4.09,1.7-3.22.73-6.14-1.16-8.77-3.28-4.54-7.42-3.65-11.76-1.32C45.73,23.91,44.59,24.21,44.44,25.18ZM25.6,43.58c-3.11.82-4,3-4.1,5.29-.11,1.49,1.07,2.35,1.86,3.3,1.33,1.58,3.33.88,5.09,1l1.29-1a5.94,5.94,0,0,0,2.38-1.66l0,0c1.51-2.77,1.07-5.14-1.36-6.91C29.09,42.33,27.33,42.94,25.6,43.58Z"/><path class="cls-1" d="M18.89,42.66c.18.6-.08.79-.66.9-2.21.38-4.34,1.2-6.7,1.25.18,2,2,2.67,2.67,3.74.31.78-.44.89-.32,1.35.28,1,1.24,1.35,1.89,1.89,2.23,1.84,4.48,3.82,7.16,4.87C26.5,58.05,30,59.87,34,59.8c.71,0,1.44-.72,2.16,0-.25.33-.62.29-1,.31a.7.7,0,0,0-.25,0l-1.87.21c-.09-.13-.18-.13-.27,0a3.64,3.64,0,0,1-1.64-.1l-.79-.11L30,60c-.07-.13-.16-.16-.27,0l-.7-.12a.38.38,0,0,0-.15-.09l-.11-.06-.34-.2-.89-.13c-.21-.27-.51-.23-.79-.24A33,33,0,0,1,15,52.9,31.55,31.55,0,0,1,5.46,41.37a8.24,8.24,0,0,1-.87-2.91.89.89,0,0,0-.45-1L4,36a1.08,1.08,0,0,0-.48-1.36C2.25,27.2,3.27,20.22,8,14.07a5.43,5.43,0,0,0,.32-.51.56.56,0,0,0,.58-.64A20.12,20.12,0,0,1,20.18,5.54c1.7.1,1.7.1,2.47.61-.78.72-1.62.23-2.45.17-.85,1.92-2.69,1.61-4.22,1.8-.45.45-.2,1-.29,1.17-4.46,2.06-5.71,6-6.55,10.22-.25,0-.49.12-.73.16s-.49.06-.81.1C7.28,21,7.45,22.49,6,23.1a4.89,4.89,0,0,0-.08,2c.3.61,1,.2,1.48.79a15.13,15.13,0,0,0,.17,11.39A3.18,3.18,0,0,0,9.43,38l1.3-.89.09-1.38C13,34,15,32.08,18,32.75c.77.22,1.43.65,1.27,1.68l-.84-.34c-1.78-.73-4.22-.27-5.23,1A4.64,4.64,0,0,0,12.78,41C14.05,42.9,15.8,43.39,18.89,42.66Z"/><path class="cls-2" d="M40.78,43.77c0-1.17,1-1.12,1.64-1.1,2.43.07,4.84-.19,7.27-.11,1.54,0,3.11-.35,4.38-.25.8-.08.71-.73,1.21-.86s.95-.21,1.38.22c-2.57,1.53-5.47,1.58-8.32,1.79C45.82,43.64,43.28,43.21,40.78,43.77Z"/><path class="cls-1" d="M3.48,34.67A1.08,1.08,0,0,1,4,36C3.41,35.72,3.46,35.19,3.48,34.67Z"/><path class="cls-1" d="M4.14,37.44a.89.89,0,0,1,.45,1A.82.82,0,0,1,4.14,37.44Z"/><path class="cls-1" d="M8.94,12.92a.56.56,0,0,1-.58.64A.59.59,0,0,1,8.94,12.92Z"/><path class="cls-1" d="M26.79,59.14c.28,0,.58,0,.79.24C27.27,59.43,27,59.45,26.79,59.14Z"/><path class="cls-1" d="M30.4,60.08l.79.11A.6.6,0,0,1,30.4,60.08Z"/><path class="cls-1" d="M28.47,59.51l.34.2Z"/><path class="cls-1" d="M28.92,59.77a.38.38,0,0,1,.15.09l-.1,0Z"/><path class="cls-1" d="M29.77,60c.11-.12.2-.09.27,0H29.9Z"/><path class="cls-1" d="M32.83,60.29c.09-.12.18-.12.27,0l-.14,0Z"/><path class="cls-1" d="M35,60.09a.7.7,0,0,1,.25,0C35.14,60.22,35.06,60.22,35,60.09Z"/><path class="cls-3" d="M20.53,20.36a.59.59,0,0,0,0,.23.63.63,0,0,0,.28.63,8.29,8.29,0,0,1,.27,3.57c-.48.65-1,1.29-1.43,1.94l0,0-.77.49c-1.53,1-4.57,1-5.62.07a5,5,0,0,1-1.41-6.15c.71-1.81,2.42-2,3.81-2.74l1.21,0A12,12,0,0,1,20.53,20.36Z"/><path class="cls-4" d="M32,11.21c1,1.72,1.69,3.48.8,5.47-.36.17-.62.4-.5.85-.25.31-.71.42-.75.9-.61.24-1.21.52-1.83.72A4.47,4.47,0,0,1,24,16.37c-.81-2.05.21-3.63,1.21-5.24l0,0c.65-.29,1.28-.6,1.93-.85C28.94,9.56,30.44,10.6,32,11.21Z"/><path class="cls-5" d="M18.89,42.66c-3.09.73-4.84.24-6.11-1.7a4.64,4.64,0,0,1,.46-5.88c1-1.26,3.45-1.72,5.23-1l.84.34C22.17,36.92,22,39.44,18.89,42.66Z"/><path class="cls-5" d="M32.12,50.51a5.94,5.94,0,0,1-2.38,1.66,9.78,9.78,0,0,0-1.21,0,4.67,4.67,0,0,1-4.79-4c-.15-2,.81-3.23,1.86-4.59,1.73-.64,3.49-1.25,5.19,0,2.43,1.77,2.87,4.14,1.36,6.91h-.06Z"/><path class="cls-2" d="M49.93,36.87c4-.8,6.2-2.88,6.42-6.11A6.48,6.48,0,0,0,53,24.36a6.38,6.38,0,0,0-6.92.08l-1.31.76-.34,0h0c.15-1,1.29-1.27,1.39-2,4.34-2.33,8.48-3.22,11.76,1.32,1.89,2.63,2.86,5.55,1.16,8.77-1.5,2.81-4.94,4.39-9.19,4.09Z"/><path class="cls-1" d="M25.16,11.13c-1,1.61-2,3.19-1.21,5.24a4.47,4.47,0,0,0,5.8,2.78c.62-.2,1.22-.48,1.83-.72a1.5,1.5,0,0,1-1.16,1.62c-2.89,1.08-5.76.29-8.64.15-.43-.34-.34-1.07-.92-1.32-.49.46-.19,1-.33,1.48a12,12,0,0,0-3.64-2c.36-.93,1.1-.55,1.68-.42a3,3,0,0,0,1.87,0l1.28-4.66c1.12-.63,2.18-1.18,2.07-2.66C24.31,10.68,24.62,11.27,25.16,11.13Z"/><path class="cls-1" d="M15.68,18.42c-1.39.74-3.1.93-3.81,2.74a5,5,0,0,0,1.41,6.15c1.05.93,4.09.89,5.62-.07l.77-.49c0,1.52-1.11,1.91-2.33,2.09a6.48,6.48,0,0,0-1.8.22c-.55.25-1.14.43-1.82.68-.8-.61-2-.77-2.63-1.61-.53-.27-1,.3-1.53-.11L8.4,25.49l.32-2.2c.72-1.56,2.23-2.57,3.25-4a5.58,5.58,0,0,1,2.53-1.41C14.89,17.72,15.56,17.66,15.68,18.42Z"/><path class="cls-1" d="M25.6,43.58c-1.05,1.36-2,2.64-1.86,4.59a4.67,4.67,0,0,0,4.79,4,9.78,9.78,0,0,1,1.21,0l-1.29,1c-1.76-.13-3.76.57-5.09-1-.79-1-2-1.81-1.86-3.3C21.65,46.6,22.49,44.4,25.6,43.58Z"/><path class="cls-2" d="M32,11.21c-1.59-.61-3.09-1.65-4.92-1-.65.25-1.28.56-1.93.85.24-2,1.92-2.3,4.88-2.72.44.41,1.1.77,1.35,1.31a1.82,1.82,0,0,0,1.27,1C32.54,11.14,32.24,11.11,32,11.21Z"/><path class="cls-2" d="M19.69,26.73c.47-.65.95-1.29,1.43-1.94.16.36.46.69.24,1.2A2.07,2.07,0,0,1,19.69,26.73Z"/><path class="cls-2" d="M32.33,17.53c-.12-.45.14-.68.5-.85C32.8,17.05,32.84,17.45,32.33,17.53Z"/><path class="cls-2" d="M20.85,21.22a.63.63,0,0,1-.28-.63l.47.13A.38.38,0,0,1,20.85,21.22Z"/><path class="cls-2" d="M44.48,25.55l-.19-.18.15-.19h0l0,.33Z"/><polygon class="cls-2" points="32.12 50.51 32.09 50.46 32.15 50.47 32.12 50.51"/><path class="cls-1" d="M44.47,25.51l0-.33.34,0Z"/></svg>