<svg id="Layer_1" data-name="Layer 1" xmlns="http://www.w3.org/2000/svg" viewBox="0 0 64 64"><defs><style>.cls-1{fill:#87c5f9;}.cls-2{fill:#eeb882;}.cls-3{fill:#5eb3f8;}.cls-4{fill:#a599a5;}.cls-5{fill:#7f727f;}.cls-6{fill:#eaedef;}.cls-7{fill:#cbcbcf;}.cls-8{fill:#040403;}.cls-9{fill:#070707;}.cls-10{fill:#060606;}.cls-11{fill:#040404;}.cls-12{fill:#f8da73;}.cls-13{fill:#acacb1;}.cls-14{fill:#ebcf6e;}</style></defs><path class="cls-1" d="M33.28,41.59a18.08,18.08,0,0,1-7.39,2.69A20.26,20.26,0,0,1,7.66,38,20.73,20.73,0,0,1,15,4.53,20.36,20.36,0,0,1,33.1,5.81a2.18,2.18,0,0,1,.31.22l.17.1h0c0,.13.12.17.24.17h0l.17.1h0c0,.09.06.12.15.09l0,0c-.07.22.09.31.22.41a20.88,20.88,0,0,1,5.65,7A21.22,21.22,0,0,1,42.17,27,21.16,21.16,0,0,1,34.78,40.3c-.16.14-.34.28-.32.53h0c-.21,0-.39,0-.4.26h0c-.13,0-.23,0-.25.16h0l-.17.11h0l-.16.1,0,0h0ZM22.74,5.07a18.71,18.71,0,1,0,18.7,18.7A18.7,18.7,0,0,0,22.74,5.07Z"/><path class="cls-2" d="M56.71,61a1,1,0,0,1-.77-.37L44.21,49.24a1,1,0,0,1,0-1.52c1.37-1.43,2.75-2.86,4.14-4.27a1,1,0,0,1,1.52,0q5.88,5.69,11.73,11.38a.94.94,0,0,1,0,1.56c-1.36,1.42-2.73,2.82-4.09,4.23A1,1,0,0,1,56.71,61Z"/><path class="cls-3" d="M34.46,40.83c0-.25.16-.39.32-.53A21.16,21.16,0,0,0,42.17,27,21.22,21.22,0,0,0,40,13.84a20.88,20.88,0,0,0-5.65-6.95c-.13-.1-.29-.19-.22-.41a20.22,20.22,0,0,1,8.07,10.19,20.69,20.69,0,0,1-7.43,24A3.47,3.47,0,0,1,34.46,40.83Z"/><path class="cls-4" d="M45.32,43.54c-.49.51-1,1-1.47,1.54-.23.27-.37.22-.6,0Q41,42.86,38.72,40.67c-.17-.17-.36-.29-.09-.56.6-.58,1.17-1.2,1.75-1.8.07.24.27.37.44.54,1.35,1.36,2.72,2.71,4.07,4.08C45.07,43.1,45.3,43.25,45.32,43.54Z"/><path class="cls-5" d="M45.32,43.54c0-.29-.25-.44-.43-.61-1.35-1.37-2.72-2.72-4.07-4.08-.17-.17-.37-.3-.44-.54.16-.46.35-.49.71-.13,1.4,1.39,2.82,2.75,4.24,4.13C46,42.93,46,42.93,45.32,43.54Z"/><path class="cls-3" d="M34.07,41.09c0-.27.19-.28.4-.26A.55.55,0,0,1,34.07,41.09Z"/><path class="cls-3" d="M33.81,6.29c-.12,0-.22,0-.24-.17A.3.3,0,0,1,33.81,6.29Z"/><path class="cls-3" d="M33.83,41.25c0-.14.12-.17.25-.16C34,41.2,33.94,41.23,33.83,41.25Z"/><path class="cls-3" d="M33.58,6.13,33.41,6Z"/><path class="cls-3" d="M34,6.38l-.17-.1Z"/><path class="cls-3" d="M34.11,6.46c-.09,0-.13,0-.15-.09Z"/><path class="cls-3" d="M33.68,41.35l.17-.11Z"/><path class="cls-3" d="M33.53,41.44l.16-.1Z"/><path class="cls-3" d="M33.28,41.59l.19-.11Z"/><path class="cls-6" d="M11.81,11.31a15.49,15.49,0,0,1,7.93-3.88,16.62,16.62,0,1,1,5.65,32.75A16.08,16.08,0,0,1,11.56,36c0-.3-.17-.46-.34-.66-.33-.39-.68-.78-1-1.2a17.71,17.71,0,0,1,.1-20.94A10.46,10.46,0,0,0,11.81,11.31Zm19.33,9.83A8.32,8.32,0,0,0,31,19.28a8.13,8.13,0,0,0-6.47-6.45A7.9,7.9,0,0,0,16,16.05a7.7,7.7,0,0,0-.59,9,12.69,12.69,0,0,1,1.88,6.93,2,2,0,0,0,.58,1.65A1.74,1.74,0,0,1,18.61,35a1.53,1.53,0,0,0,.68,1.2,1.14,1.14,0,0,1,.51.95,2.15,2.15,0,0,0,2.19,2h1.55A2.19,2.19,0,0,0,25.78,37c0-.23,0-.44.25-.6a2.2,2.2,0,0,0,1-1.93.59.59,0,0,1,.27-.53,2.24,2.24,0,0,0,.89-2A11.7,11.7,0,0,1,30,25.12,7,7,0,0,0,31.14,21.14ZM23.79,10.33h-.05a7.93,7.93,0,0,0,0-1.09.93.93,0,0,0-1-.84.91.91,0,0,0-1,.77,7.08,7.08,0,0,0,0,2.25.9.9,0,0,0,1,.77.92.92,0,0,0,1-.83A8.64,8.64,0,0,0,23.79,10.33Zm-9.65,6.29a.87.87,0,0,0-.33-.63,8.48,8.48,0,0,0-1.94-1.11.92.92,0,0,0-1.18.51A.9.9,0,0,0,11,16.65a11.13,11.13,0,0,0,1.77,1A1,1,0,0,0,14.14,16.62Zm20.78-.74a1,1,0,0,0-1.32-1A7.49,7.49,0,0,0,31.66,16a1,1,0,0,0,.23,1.63C32.65,18.05,34.9,16.75,34.92,15.88Zm-6.54-2.2A.72.72,0,0,0,29,13.4a7.11,7.11,0,0,0,1.16-2,.9.9,0,0,0-.54-1.18,1,1,0,0,0-1.26.32,14.53,14.53,0,0,0-1,1.67A1,1,0,0,0,28.38,13.68Zm-12-3.55a1,1,0,0,0-1,1.34,11.15,11.15,0,0,0,1.09,1.89.9.9,0,0,0,1.06.27,1,1,0,0,0,.69-.85,4.81,4.81,0,0,0-1.45-2.56A2.06,2.06,0,0,0,16.38,10.13Z"/><path class="cls-7" d="M11.81,11.31a10.46,10.46,0,0,1-1.46,1.92,17.71,17.71,0,0,0-.1,20.94c.29.42.64.81,1,1.2.17.2.39.36.34.66a15.25,15.25,0,0,1-4.95-8.27,16.3,16.3,0,0,1,4.84-16.19A2.36,2.36,0,0,1,11.81,11.31Z"/><path class="cls-8" d="M31.14,21.14a7,7,0,0,1-1.12,4,11.7,11.7,0,0,0-1.84,6.8,2.24,2.24,0,0,1-.89,2,.59.59,0,0,0-.27.53,2.2,2.2,0,0,1-1,1.93c-.25.16-.23.37-.25.6a2.19,2.19,0,0,1-2.24,2.18H22a2.15,2.15,0,0,1-2.19-2,1.14,1.14,0,0,0-.51-.95,1.53,1.53,0,0,1-.68-1.2,1.74,1.74,0,0,0-.73-1.38,2,2,0,0,1-.58-1.65A12.69,12.69,0,0,0,15.42,25a7.7,7.7,0,0,1,.59-9,7.9,7.9,0,0,1,8.48-3.22A8.13,8.13,0,0,1,31,19.28,8.32,8.32,0,0,1,31.14,21.14ZM25,26.86v2.52c0,.26-.05.56.36.52s.81.18.86-.45a13.64,13.64,0,0,1,2-5.46A6.27,6.27,0,0,0,23,14.71a6,6,0,0,0-5.65,3.11,5.84,5.84,0,0,0,0,6.31,12.67,12.67,0,0,1,1.94,5.34c.06.6.5.39.82.43s.42-.24.42-.54c0-1.59,0-3.18,0-4.78,0-.58-.14-.74-.74-.75A2.73,2.73,0,0,1,17,21.05a2.77,2.77,0,0,1,2.68-2.71A2.81,2.81,0,0,1,22.51,21c0,.27-.23.79.24.78s.18-.52.22-.8a2.74,2.74,0,0,1,1.78-2.4,2.56,2.56,0,0,1,2.82.53,2.61,2.61,0,0,1,.8,2.76,2.71,2.71,0,0,1-2.63,2c-.55,0-.76.12-.72.71C25.08,25.31,25,26.09,25,26.86Zm-2.07,0V24.27c0-.18.07-.43-.25-.41s-.21.23-.21.38v5.23c0,.18-.06.44.25.42s.2-.29.2-.46C23,28.57,23,27.71,23,26.85Zm3.11,5.26c-.2-.2-.43-.14-.63-.14H19.9c-.16,0-.46-.13-.46.15s.3.16.46.16h5.62C25.69,32.28,25.9,32.35,26.08,32.11Zm-3.3,2.23H20.85c-.1,0-.22,0-.23.14a.2.2,0,0,0,.2.2,3.39,3.39,0,0,0,.45,0h3.15c.18,0,.47,0,.48-.19s-.29-.16-.44-.17C23.9,34.33,23.34,34.34,22.78,34.34Zm-2.33-13c0-.54-.17-.93-.7-.94a.62.62,0,0,0-.67.7c0,.53.44.66.92.68S20.5,21.66,20.45,21.36Zm5,.43c.55,0,.93-.18.94-.71a.62.62,0,0,0-.71-.66c-.53,0-.65.44-.67.92S25.17,21.85,25.46,21.79ZM23.68,36.91a3.17,3.17,0,0,0-1.78,0A3.17,3.17,0,0,0,23.68,36.91Z"/><path class="cls-9" d="M23.79,10.33a8.64,8.64,0,0,1-.06,1,.92.92,0,0,1-1,.83.9.9,0,0,1-1-.77,7.08,7.08,0,0,1,0-2.25.91.91,0,0,1,1-.77.93.93,0,0,1,1,.84,7.93,7.93,0,0,1,0,1.09Z"/><path class="cls-10" d="M14.14,16.62a1,1,0,0,1-1.4,1.05,11.13,11.13,0,0,1-1.77-1,.9.9,0,0,1-.28-1.26.92.92,0,0,1,1.18-.51A8.48,8.48,0,0,1,13.81,16,.87.87,0,0,1,14.14,16.62Z"/><path class="cls-10" d="M34.92,15.88c0,.87-2.27,2.17-3,1.75A1,1,0,0,1,31.66,16a7.49,7.49,0,0,1,1.94-1.12A1,1,0,0,1,34.92,15.88Z"/><path class="cls-11" d="M28.38,13.68a1,1,0,0,1-1-1.46,14.53,14.53,0,0,1,1-1.67,1,1,0,0,1,1.26-.32.9.9,0,0,1,.54,1.18,7.11,7.11,0,0,1-1.16,2A.72.72,0,0,1,28.38,13.68Z"/><path class="cls-11" d="M16.38,10.13a2.06,2.06,0,0,1,.36.09,4.81,4.81,0,0,1,1.45,2.56,1,1,0,0,1-.69.85.9.9,0,0,1-1.06-.27,11.15,11.15,0,0,1-1.09-1.89A1,1,0,0,1,16.38,10.13Z"/><path class="cls-12" d="M25,26.86c0-.77,0-1.55,0-2.32,0-.59.17-.7.72-.71a2.71,2.71,0,0,0,2.63-2,2.61,2.61,0,0,0-.8-2.76,2.56,2.56,0,0,0-2.82-.53A2.74,2.74,0,0,0,23,20.94c0,.28.21.79-.22.8s-.21-.51-.24-.78a2.81,2.81,0,0,0-2.83-2.62A2.77,2.77,0,0,0,17,21.05a2.73,2.73,0,0,0,2.72,2.78c.6,0,.75.17.74.75,0,1.6,0,3.19,0,4.78,0,.3,0,.59-.42.54s-.76.17-.82-.43a12.67,12.67,0,0,0-1.94-5.34,5.84,5.84,0,0,1,0-6.31A6,6,0,0,1,23,14.71,6.27,6.27,0,0,1,28.28,24a13.64,13.64,0,0,0-2,5.46c-.05.63-.52.41-.86.45s-.36-.26-.36-.52Z"/><path class="cls-12" d="M23,26.85c0,.86,0,1.72,0,2.58,0,.17.11.43-.2.46s-.25-.24-.25-.42V24.24c0-.15-.06-.37.21-.38s.24.23.25.41Z"/><path class="cls-6" d="M26.08,32.11c-.18.24-.39.17-.56.17H19.9c-.16,0-.47.13-.46-.16s.3-.14.46-.15h5.55C25.65,32,25.88,31.91,26.08,32.11Z"/><path class="cls-13" d="M22.78,34.34c.56,0,1.12,0,1.68,0,.15,0,.46-.12.44.17s-.3.19-.48.19H21.27a3.39,3.39,0,0,1-.45,0,.2.2,0,0,1-.2-.2c0-.15.13-.14.23-.14Z"/><path class="cls-14" d="M20.45,21.36c.05.3-.07.45-.45.44s-.88-.15-.92-.68a.62.62,0,0,1,.67-.7C20.28,20.43,20.45,20.82,20.45,21.36Z"/><path class="cls-14" d="M25.46,21.79c-.29.06-.45-.06-.44-.45s.14-.88.67-.92a.62.62,0,0,1,.71.66C26.39,21.61,26,21.79,25.46,21.79Z"/><path class="cls-4" d="M23.68,36.91a3.17,3.17,0,0,1-1.78,0A3.17,3.17,0,0,1,23.68,36.91Z"/></svg>