<svg id="Layer_1" data-name="Layer 1" xmlns="http://www.w3.org/2000/svg" viewBox="0 0 64 64"><defs><style>.cls-1{fill:#f73230;}.cls-2{fill:#51e0fd;}.cls-3{fill:#47a4fa;}.cls-4{fill:#f3f1f1;}.cls-5{fill:#9d9d9e;}</style></defs><path class="cls-1" d="M51.1,25.58C59,43.2,45.73,62.86,26.56,62a25.69,25.69,0,0,1-3.7-50.89,25.42,25.42,0,0,1,15.57,1.85,16.8,16.8,0,0,0,.86,4.33,10.33,10.33,0,0,1-2.53,2.08C24.9,12.47,9.2,21.25,8.49,35.16A19.32,19.32,0,0,0,33.63,54.64c11.34-3.54,16.9-17.29,11-27.38a11.62,11.62,0,0,1,2.11-2.63A13.82,13.82,0,0,0,51.1,25.58Z"/><path class="cls-2" d="M36.76,19.34a10.15,10.15,0,0,0,2.53-2.09c1.46-.62,2.42-1.91,3.7-2.77,2-1.34,3.54-3.46,6.09-4l1.36.33-6.69,6.84c-1,1.06-1.22,2.29-.46,3s2,.59,3.05-.44l6.83-6.7c.11.45.23.91.35,1.36a6.64,6.64,0,0,1-1.35,2.83c-1.79,2.3-3.59,4.57-5.38,6.86a11.62,11.62,0,0,0-2.11,2.63L40,32.78a6.68,6.68,0,0,1-6.31.95l-.61-.23a8.92,8.92,0,0,1-2.53-2.59l-.29-.61A6.64,6.64,0,0,1,31.24,24Z"/><path class="cls-3" d="M49.08,10.5c-2.55.52-4.07,2.64-6.09,4-1.28.86-2.24,2.15-3.7,2.77a16.64,16.64,0,0,1-.86-4.32c0-4.13,2-7.29,4.94-10,1.73-1.57,3.11-1.21,3.79,1S48.44,8.33,49.08,10.5Z"/><path class="cls-3" d="M46.79,24.63c1.79-2.29,3.59-4.56,5.38-6.86a6.64,6.64,0,0,0,1.35-2.83c2.23.6,4.48,1.16,6.7,1.82,2,.58,2.3,2,1,3.57-2.67,3.13-5.83,5.27-10.12,5.25A13.82,13.82,0,0,1,46.79,24.63Z"/><path class="cls-3" d="M53.17,13.58l-6.83,6.7c-1.06,1-2.29,1.21-3.05.44s-.58-2,.46-3l6.69-6.84c.66-.61,1.31-1.23,2-1.83A1.68,1.68,0,0,1,55,9.05a1.69,1.69,0,0,1,0,2.55C54.43,12.29,53.79,12.92,53.17,13.58Z"/><path class="cls-4" d="M40,32.78l4.64-5.52c5.85,10.09.29,23.84-11,27.38A19.32,19.32,0,0,1,8.49,35.16C9.2,21.25,24.9,12.47,36.76,19.34L31.24,24a12.75,12.75,0,0,0-14.63,5.91A12.83,12.83,0,0,0,34.13,47.41,12.74,12.74,0,0,0,40,32.78Z"/><path class="cls-1" d="M40,32.78a12.74,12.74,0,0,1-5.91,14.63A12.83,12.83,0,0,1,16.61,29.89,12.75,12.75,0,0,1,31.24,24a6.64,6.64,0,0,0-.94,6.32,15.59,15.59,0,0,0-1.78-.36,6.38,6.38,0,0,0-6,10.06A6.08,6.08,0,0,0,29,42.54c4-.86,5.77-4.2,4.69-8.81A6.68,6.68,0,0,0,40,32.78Z"/><path class="cls-4" d="M33.73,33.73c1.08,4.61-.68,8-4.69,8.81A6.08,6.08,0,0,1,22.52,40a6.38,6.38,0,0,1,6-10.06,15.59,15.59,0,0,1,1.78.36c.1.2.2.41.29.61-.72.69-1.47,1.37-2.17,2.08A1.85,1.85,0,1,0,31,35.63c.72-.7,1.42-1.42,2.13-2.13Z"/><path class="cls-5" d="M33.12,33.5c-.71.71-1.41,1.43-2.13,2.13A1.85,1.85,0,1,1,28.42,33c.7-.71,1.45-1.39,2.17-2.08A8.92,8.92,0,0,0,33.12,33.5Z"/></svg>