<svg id="Layer_1" data-name="Layer 1" xmlns="http://www.w3.org/2000/svg" viewBox="0 0 64 64"><defs><style>.cls-1{fill:#a3b18a;}</style></defs><path class="cls-1" d="M62,33.33c-.33,1.32-.57,2.67-1,4A14.26,14.26,0,0,1,40.3,45.07c-2.63-1.55-4.78-3.91-7.13-5.92A13,13,0,0,1,32.1,38c-1.79,1.69-3.48,3.42-5.31,5-5.9,5.09-12.72,4.95-18,1.69A14.11,14.11,0,0,1,2.27,34.33c-.06-.34-.18-.67-.27-1V30.66c.22-1,.39-2,.67-2.95a14.4,14.4,0,0,1,22.71-7.77c2.39,1.74,4.48,3.9,6.56,5.74,1-.94,2.21-2,3.36-3.08,2.63-2.44,5.43-4.55,9.06-5.32A14.53,14.53,0,0,1,61.74,29.66a7,7,0,0,0,.26,1ZM37,31.71c1.52,2.32,4.83,5.66,6.85,6.68a8.4,8.4,0,0,0,3.52,1A6.56,6.56,0,0,0,54,34.52a7.88,7.88,0,0,0-2.47-8.65,6.92,6.92,0,0,0-8.63.31C40.8,27.87,38.94,29.84,37,31.71ZM27.4,32c-2.39-2.21-4.37-4.17-6.49-6a6.2,6.2,0,0,0-5.09-1.46c-4,.62-6.24,3.37-6.14,7.78a6.59,6.59,0,0,0,3.51,6.14c2.43,1.27,5,1.43,7.28-.34S24.89,34.27,27.4,32Z"/></svg>