<svg id="Layer_1" data-name="Layer 1" xmlns="http://www.w3.org/2000/svg" viewBox="0 0 64 64"><defs><style>.cls-1{fill:#fd9249;}.cls-2{fill:#fda145;}.cls-3{fill:#fe754d;}.cls-4{fill:#fcba60;}.cls-5{fill:#f87e6b;}.cls-6{fill:#e18833;}.cls-7{fill:#f2583e;}.cls-8{fill:#f6677c;}.cls-9{fill:#e46b4f;}.cls-10{fill:#fd9a47;}.cls-11{fill:#fe8a4a;}.cls-12{fill:#feab48;}.cls-13{fill:#fdb350;}.cls-14{fill:#fe844b;}.cls-15{fill:#fe654f;}</style></defs><path class="cls-1" d="M46.27,27.49l3,.4c-.35.92-.66,1.85-1,2.74A10.37,10.37,0,0,1,47.36,32a2.34,2.34,0,0,0-2.5,1.13,11.81,11.81,0,0,1-2.76.79c-1.67.07-3.34-.19-5-.17a4.19,4.19,0,0,0-2.29.56c-.83.59-1.2.48-1.83-.23a2.59,2.59,0,0,0-1.79-.88,27.36,27.36,0,0,1-8.92-1.1c-1.28-.31-2.75-.71-3.17-2.34.85-1.59,1.66-3.21,2.57-4.76A5.75,5.75,0,0,1,23,23.87a4.4,4.4,0,0,1,0,1.45,1.69,1.69,0,0,0,.41,2c1.38,1.5,3.08,1.58,4.92,1.55a7.77,7.77,0,0,1,2.53.66c1.14.41,2.25,1.3,3.36,1.28,3.46-.06,6.91-.47,10.36-.73,1.07-.08,1.8-.47,1.69-1.71Z"/><path class="cls-2" d="M38,27.24l.44.1c0,.25,0,.49,0,.74a3,3,0,0,1-.7.59c-1.85.73-3.22-.34-4.61-1.28s-2.48-1.78-3.73-2.65a1.46,1.46,0,0,0-.66-.2A4.34,4.34,0,0,1,25.24,20a14.17,14.17,0,0,1,.89-2.74c1.55-2.71,3.19-5.36,4.83-8,1-1.55,2-3.07,3-4.6l-.27,2.23c-.28.52-.58,1-.83,1.57-.53,1.11-1,2.24-1.54,3.36a21.31,21.31,0,0,0-1.5,3.36A14.75,14.75,0,0,0,29.4,19a2.88,2.88,0,0,0,.76,1.87,10.09,10.09,0,0,1,3,4.31,6.15,6.15,0,0,0,1.07,1.94c.44.58,1,.66,1.42-.12Z"/><path class="cls-3" d="M26.38,50.52c0-3.79-.05-7.58-.1-11.37,0-.79-.13-1.57-.2-2.35,0-.28,0-.57,0-.86.35.3.94.55,1,.91a28.56,28.56,0,0,1,.65,4.21c.18,2.37,1,3.15,3.35,3.31,1.46.11,3.08-.18,4.28,1.13.13.14.87-.08,1.17-.33a17.82,17.82,0,0,0,1.58-1.67l-3.08,5.32a40.11,40.11,0,0,1-4.61.51c-1.59,0-2.18-.69-2.42-2.23-.1-.63-.14-1.28-.29-1.91-.23-.94-.52-1.87-.78-2.8L26.85,41h-.47Z"/><path class="cls-4" d="M38,27.24,35.62,27c-.1-.47-.19-.94-.28-1.41a9.61,9.61,0,0,0,.26-1.75c-.06-4.56-.18-9.11-.26-13.66,0-2,0-3.91,0-5.86l.24-2.22c1.47-.37,1.73.43,1.73,1.66q0,10.59,0,21.18A8.71,8.71,0,0,0,38,27.24Z"/><path class="cls-5" d="M35.06,48.82l3.08-5.32c1.22-2,2.43-3.92,3.65-5.87l3.07-4.48A2.34,2.34,0,0,1,47.36,32C43.77,37.94,40.2,43.86,36.6,49.77c-1.13,1.86-2.31,3.69-3.47,5.54-.39-.3-.78-.6-1.16-.91.14-.28.29-.56.44-.84Q33.73,51.19,35.06,48.82Z"/><path class="cls-6" d="M33.93,4.6c-1,1.53-2,3.05-3,4.6-1.64,2.66-3.28,5.31-4.83,8A13.5,13.5,0,0,0,25.25,20c-1.54.85-1.82,2.43-2.26,3.91A5.75,5.75,0,0,0,21.66,25c-.91,1.55-1.72,3.17-2.57,4.76l-1.67,2.8-.86,1.68-1.88,1.1a6.38,6.38,0,0,1,.46-1.4Q24.37,18.57,33.63,3.23a6.72,6.72,0,0,1,1.14-1.12L34.23,4.3Z"/><path class="cls-7" d="M26.38,50.52V41h.47c0,.47.07.94.11,1.4.08,3,.15,6,.24,9,.06,2.46,1.19,4.88.09,7.38-.3.7.09,1.27,1,1.22L26.9,61.89c-.19-.33-.53-.67-.53-1C26.34,57.43,26.37,54,26.38,50.52Z"/><path class="cls-8" d="M26.9,61.89,28.28,60A10.55,10.55,0,0,0,29.13,59c1-1.51,1.89-3,2.84-4.57.38.31.77.61,1.16.91-1.17,1.95-2.34,3.89-3.5,5.84C29,62.28,27.9,62,26.9,61.89Z"/><path class="cls-9" d="M14.68,35.36l1.89-1.1a8.92,8.92,0,0,0,1.78.55c2.27.24,4.55.39,6.82.62.32,0,.61.33.92.51,0,.29,0,.58,0,.86a9.25,9.25,0,0,0-2.17-.64c-2.49-.08-5,0-7.49-.08A5.5,5.5,0,0,1,14.68,35.36Z"/><path class="cls-6" d="M38.43,28.08c0-.25,0-.49,0-.74l7.86.15c0,.29,0,.58,0,.86Z"/><path class="cls-2" d="M34.23,4.3l.54-2.19.8,0-.24,2.22Z"/><path class="cls-10" d="M38.43,28.08l7.82.27c.11,1.24-.62,1.63-1.69,1.71-3.45.26-6.9.67-10.36.73-1.11,0-2.22-.87-3.36-1.28a7.77,7.77,0,0,0-2.53-.66c-1.84,0-3.54-.05-4.92-1.55a1.69,1.69,0,0,1-.41-2,4.4,4.4,0,0,0,0-1.45c.44-1.48.72-3.06,2.26-3.91a4.32,4.32,0,0,0,3.48,4.58,1.46,1.46,0,0,1,.66.2c1.25.87,2.47,1.79,3.73,2.65s2.76,2,4.61,1.28A3,3,0,0,0,38.43,28.08Z"/><path class="cls-11" d="M17.42,32.58l1.67-2.8c.42,1.63,1.89,2,3.17,2.34a27.36,27.36,0,0,0,8.92,1.1A2.59,2.59,0,0,1,33,34.1c.63.71,1,.82,1.83.23a4.19,4.19,0,0,1,2.29-.56c1.67,0,3.34.24,5,.17a11.81,11.81,0,0,0,2.76-.79l-3.07,4.48c-.53.16-1,.36-1.58.48a2.91,2.91,0,0,1-1.45.18,12,12,0,0,0-6.52-.72c-.38.07-1.05,0-1.17-.21-.69-1.28-2.2-1.06-3.07-1.72a9.93,9.93,0,0,0-6.1-1.8,8.24,8.24,0,0,1-2.06-.17A18.68,18.68,0,0,1,17.42,32.58Z"/><path class="cls-12" d="M35.34,25.58c.09.47.18.94.28,1.41-.42.78-1,.7-1.42.12a6.15,6.15,0,0,1-1.07-1.94,10.09,10.09,0,0,0-3-4.31A2.88,2.88,0,0,1,29.4,19a14.75,14.75,0,0,1,.39-3.87,21.31,21.31,0,0,1,1.5-3.36c.51-1.12,1-2.25,1.54-3.36.25-.54.55-1.05.83-1.57a31,31,0,0,1-.07,5.62C32.69,17.07,34.15,21.29,35.34,25.58Z"/><path class="cls-13" d="M35.34,25.58c-1.19-4.29-2.65-8.51-1.75-13.13a31,31,0,0,0,.07-5.62l.27-2.23.3-.3h1.1c0,2,0,3.9,0,5.86.08,4.55.2,9.1.26,13.66A9.61,9.61,0,0,1,35.34,25.58Z"/><path class="cls-14" d="M17.42,32.58a18.68,18.68,0,0,0,2.42,1.09,8.24,8.24,0,0,0,2.06.17,9.93,9.93,0,0,1,6.1,1.8c.87.66,2.38.44,3.07,1.72.12.23.79.28,1.17.21a12,12,0,0,1,6.52.72,2.91,2.91,0,0,0,1.45-.18c.53-.12,1-.32,1.58-.48-1.22,1.95-2.43,3.91-3.65,5.87a17.82,17.82,0,0,1-1.58,1.67c-.3.25-1,.47-1.17.33-1.2-1.31-2.82-1-4.28-1.13-2.33-.16-3.17-.94-3.35-3.31a28.56,28.56,0,0,0-.65-4.21c-.08-.36-.67-.61-1-.91s-.6-.48-.92-.51c-2.27-.23-4.55-.38-6.82-.62a8.92,8.92,0,0,1-1.78-.55C16.85,33.7,17.13,33.14,17.42,32.58Z"/><path class="cls-15" d="M32,54.4C31,55.93,30.09,57.46,29.13,59A10.55,10.55,0,0,1,28.28,60c-.9,0-1.29-.52-1-1.22,1.1-2.5,0-4.92-.09-7.38-.09-3-.16-6-.24-9,.26.93.55,1.86.78,2.8.15.63.19,1.28.29,1.91.24,1.54.83,2.23,2.42,2.23a40.11,40.11,0,0,0,4.61-.51q-1.34,2.37-2.65,4.74C32.26,53.84,32.11,54.12,32,54.4Z"/></svg>