<svg id="Layer_1" data-name="Layer 1" xmlns="http://www.w3.org/2000/svg" viewBox="0 0 64 64"><defs><style>.cls-1{fill:#331c42;}.cls-2{fill:#6f65a1;}.cls-3{fill:#7066a3;}.cls-4{fill:#f37c2e;}.cls-5{fill:#02a1e6;}.cls-6{fill:#f3cd3f;}.cls-7{fill:#fa7f2d;}.cls-8{fill:#01a2e8;}</style></defs><path class="cls-1" d="M11.61,53.36c0-1.24.07-2.47.07-3.71q0-17.67,0-35.34c0-1.3-.07-2.59-.1-3.88.56,0,1.13.11,1.7.11q18.6,0,37.21,0c.57,0,1.13-.07,1.7-.11a8.53,8.53,0,0,1,.23,1.49q-.11,19-.26,38c0,1.1,0,2.2-.07,3.3-.8,0-1.59.1-2.39.11ZM46.85,32.08c0-.51,0-1,0-1.53-.06-2.16-.71-2.81-2.9-2.86q-1.27,0-2.55,0c-2.49.07-3.1.69-3.14,3.17,0,.34,0,.68,0,1,0,4.09.29,4.39,4.31,4.39S46.85,36,46.85,32.08ZM25.44,32c0-.57,0-1.14,0-1.7,0-1.81-.63-2.48-2.42-2.61-1.13-.07-2.28,0-3.41,0-1.88.05-2.64.84-2.73,2.74,0,.45,0,.91,0,1.36,0,4.25.22,4.48,4.39,4.48S25.44,36.16,25.44,32Zm21.4,10.66c0-.57,0-1.14,0-1.71,0-1.77-.71-2.49-2.46-2.55-1.25,0-2.5,0-3.75,0a2.06,2.06,0,0,0-2.26,2c-.08,1-.1,2-.1,3.06,0,2.82.63,3.44,3.39,3.45h.86C46.68,47,46.84,46.83,46.84,42.69ZM42.5,25.55c3.93.13,4.42-.19,4.35-4.25S46.56,17,42.51,17c-3.89,0-4.25.37-4.25,4.32S38.56,25.55,42.5,25.55Zm-6.39,6.52c0-.62,0-1.25,0-1.87-.06-1.77-.55-2.33-2.33-2.46a32.89,32.89,0,0,0-3.58,0c-1.77.07-2.54.87-2.65,2.64,0,.51,0,1,0,1.54,0,4.09.29,4.38,4.35,4.38S36.11,36.14,36.11,32.07ZM25.44,42.78c0-.57,0-1.14,0-1.7,0-1.89-.69-2.58-2.54-2.64-1,0-2,0-3.07,0-2.26,0-2.9.69-2.95,3,0,.4,0,.79,0,1.19,0,4.1.28,4.38,4.32,4.38S25.44,46.76,25.44,42.78Zm0-21.53V19.88c0-2.14-.69-2.83-2.85-2.89-.91,0-1.82,0-2.73,0-2.18,0-2.92.78-3,3,0,.39,0,.79,0,1.19,0,4.18.19,4.37,4.28,4.37S25.44,25.48,25.44,21.25Zm10.67-.05V19.66c0-1.93-.72-2.63-2.69-2.67-1,0-2.05,0-3.07,0-1.92.05-2.66.74-2.79,2.66-.07,1,0,2.05,0,3.07.07,2.09.82,2.79,3,2.82.4,0,.79,0,1.19,0C36.05,25.54,36.11,25.49,36.11,21.2Zm0,21.48c0-.57,0-1.13,0-1.7-.05-1.91-.65-2.51-2.58-2.55-1.19,0-2.38,0-3.58,0a2.07,2.07,0,0,0-2.28,2,25.55,25.55,0,0,0-.1,3.39c0,2.4.8,3.12,3.21,3.15h1C35.9,47,36.11,46.78,36.11,42.68Z"/><path class="cls-2" d="M11.61,53.36l38.09,0c.8,0,1.59-.07,2.39-.11a20.24,20.24,0,0,1-.11,3.9A6.5,6.5,0,0,1,45.56,62q-13.39,0-26.81-.07c-3.5,0-6-1.51-6.79-4.35A20.27,20.27,0,0,1,11.61,53.36Z"/><path class="cls-3" d="M52.19,10.43c-.57,0-1.13.11-1.7.11q-18.6,0-37.21,0c-.57,0-1.14-.07-1.7-.11,0-.57,0-1.14,0-1.71.16-4.14,2.69-6.65,6.83-6.66C27.18,2,35.94,2.18,44.7,2c5.1-.1,7.95,3.41,7.49,7.58A6,6,0,0,0,52.19,10.43Z"/><path class="cls-4" d="M46.85,32.08c0,4-.25,4.2-4.29,4.2s-4.31-.3-4.31-4.39c0-.35,0-.69,0-1,0-2.48.65-3.1,3.14-3.17q1.28,0,2.55,0c2.19,0,2.84.7,2.9,2.86C46.86,31.06,46.85,31.57,46.85,32.08Z"/><path class="cls-5" d="M25.44,32c0,4.13-.11,4.25-4.17,4.25s-4.39-.23-4.39-4.48c0-.45,0-.91,0-1.36.09-1.9.85-2.69,2.73-2.74,1.13,0,2.28-.05,3.41,0,1.79.13,2.38.8,2.42,2.61C25.45,30.89,25.44,31.46,25.44,32Z"/><path class="cls-6" d="M46.84,42.69c0,4.14-.16,4.3-4.33,4.3h-.86c-2.76,0-3.38-.63-3.39-3.45,0-1,0-2,.1-3.06a2.06,2.06,0,0,1,2.26-2c1.25,0,2.5,0,3.75,0,1.75.06,2.43.78,2.46,2.55C46.85,41.55,46.84,42.12,46.84,42.69Z"/><path class="cls-6" d="M42.5,25.55c-3.94,0-4.24-.31-4.24-4.25S38.62,17,42.51,17c4.05,0,4.27.27,4.34,4.32S46.43,25.68,42.5,25.55Z"/><path class="cls-6" d="M36.11,32.07c0,4.07-.13,4.2-4.22,4.2s-4.35-.29-4.35-4.38c0-.51,0-1,0-1.54.11-1.77.88-2.57,2.65-2.64a32.89,32.89,0,0,1,3.58,0c1.78.13,2.27.69,2.33,2.46C36.13,30.82,36.11,31.45,36.11,32.07Z"/><path class="cls-7" d="M25.44,42.78c0,4-.23,4.21-4.24,4.21s-4.32-.28-4.32-4.38c0-.4,0-.79,0-1.19.05-2.3.69-3,2.95-3,1,0,2.05,0,3.07,0,1.85.06,2.5.75,2.54,2.64C25.45,41.64,25.44,42.21,25.44,42.78Z"/><path class="cls-7" d="M25.44,21.25c0,4.23-.06,4.29-4.28,4.29s-4.28-.19-4.28-4.37c0-.4,0-.8,0-1.19.06-2.22.8-3,3-3,.91,0,1.82,0,2.73,0,2.16.06,2.83.75,2.85,2.89Z"/><path class="cls-8" d="M36.11,21.2c0,4.29-.06,4.34-4.4,4.34-.4,0-.79,0-1.19,0-2.15,0-2.9-.73-3-2.82,0-1-.06-2,0-3.07.13-1.92.87-2.61,2.79-2.66,1,0,2,0,3.07,0,2,0,2.65.74,2.69,2.67Z"/><path class="cls-8" d="M36.11,42.68c0,4.1-.21,4.31-4.32,4.31h-1c-2.41,0-3.17-.75-3.21-3.15a25.55,25.55,0,0,1,.1-3.39,2.07,2.07,0,0,1,2.28-2c1.2,0,2.39,0,3.58,0,1.93,0,2.53.64,2.58,2.55C36.12,41.55,36.11,42.11,36.11,42.68Z"/></svg>