<svg id="Layer_1" data-name="Layer 1" xmlns="http://www.w3.org/2000/svg" viewBox="0 0 64 64"><defs><style>.cls-1{fill:#ecebeb;}.cls-2{fill:#f14624;}.cls-3{fill:#fcc335;}.cls-4{fill:#2d3845;}.cls-5{fill:#00adfd;}</style></defs><path class="cls-1" d="M26.38,18.38a50.87,50.87,0,0,1,3.85-5.28A32.43,32.43,0,0,1,44.88,3.49c.07.24.28.37.45.54L59.88,18.58c.17.17.35.32.53.48A32.36,32.36,0,0,1,47.6,36.15c-.75.52-1.51,1-2.27,1.51-3.41,2.18-6.84,4.36-10.25,6.55-2.43,1.56-4.85,3.14-7.27,4.72-.08,0-.14,0-.13.11h0a2.8,2.8,0,0,1-3.35-.26l-9.22-9.24a2.58,2.58,0,0,1,0-3.45l.26-.45q3.16-4.91,6.32-9.81C23.23,23.34,24.8,20.86,26.38,18.38ZM42,13.65a8.26,8.26,0,1,0,8.25,8.27A8.21,8.21,0,0,0,42,13.65Z"/><path class="cls-2" d="M26.38,18.38c-1.58,2.48-3.15,5-4.74,7.44q-3.15,4.91-6.32,9.81a27.56,27.56,0,0,0-7.17,2.58,28,28,0,0,0-3.57,2.12,1.6,1.6,0,0,1-2,.26c-.69-.46-.68-1.12-.56-1.85A31.06,31.06,0,0,1,8.89,23.28a15.43,15.43,0,0,1,9.37-5.62A17,17,0,0,1,26.38,18.38Z"/><path class="cls-2" d="M27.81,48.93c2.42-1.58,4.84-3.16,7.27-4.72,3.41-2.19,6.84-4.37,10.25-6.55,2.15,7.27-.15,13.64-6.59,18.26a32.35,32.35,0,0,1-13.89,5.59l-.39,0a1.35,1.35,0,0,1-1.5-.64,1.41,1.41,0,0,1,.1-1.64,34.54,34.54,0,0,0,2.73-4.71,31.12,31.12,0,0,0,1.82-4.85c.06-.22.19-.44.07-.68h0C27.8,49.09,27.79,49,27.81,48.93Z"/><path class="cls-2" d="M60.41,19.06c-.18-.16-.36-.31-.53-.48L45.33,4c-.17-.17-.38-.3-.45-.54a27.19,27.19,0,0,1,6.68-1.38c1-.07,2.1-.22,3.16-.23A24.14,24.14,0,0,1,58,2.1,4.78,4.78,0,0,1,61.9,6.49a33,33,0,0,1-1.33,12.15C60.53,18.79,60.46,18.92,60.41,19.06Z"/><path class="cls-3" d="M20.85,49.82a5.87,5.87,0,0,1-3.49,4.67,54.63,54.63,0,0,1-8.62,3C8,57.7,7.23,58,6.56,57.3s-.34-1.41-.14-2.14a62.08,62.08,0,0,1,2.84-8.27,6,6,0,0,1,4.91-3.84,5.55,5.55,0,0,1,1.07,1,3.44,3.44,0,0,0-1.6,1.64,24.85,24.85,0,0,0-1.7,4.89A1.12,1.12,0,0,0,13.31,52a28.17,28.17,0,0,0,4.83-1.68,3.05,3.05,0,0,0,1.65-1.66A3.4,3.4,0,0,1,20.85,49.82Z"/><path class="cls-4" d="M20.85,49.82a3.4,3.4,0,0,0-1.06-1.17q-2.2-2.34-4.55-4.56a5.55,5.55,0,0,0-1.07-1,7,7,0,0,1-.48-.6,1.34,1.34,0,0,1,.19-1.6,12.81,12.81,0,0,0,1.23-1.32l9.22,9.24-1.12,1.08c-.77.76-1.2.78-2.08.11A1.47,1.47,0,0,0,20.85,49.82Z"/><path class="cls-4" d="M42,13.65a8.26,8.26,0,1,1-8.26,8.23A8.26,8.26,0,0,1,42,13.65Zm-6.32,8.29A6.33,6.33,0,1,0,42,15.59,6.3,6.3,0,0,0,35.71,21.94Z"/><path d="M27.81,48.93c0,.06,0,.16-.13.11S27.73,48.93,27.81,48.93Z"/><path class="cls-2" d="M15.24,44.09q2.34,2.22,4.55,4.56a3.05,3.05,0,0,1-1.65,1.66A28.17,28.17,0,0,1,13.31,52a1.12,1.12,0,0,1-1.37-1.37,24.85,24.85,0,0,1,1.7-4.89A3.44,3.44,0,0,1,15.24,44.09Z"/><path class="cls-5" d="M35.71,21.94a6.33,6.33,0,1,1,6.37,6.31A6.28,6.28,0,0,1,35.71,21.94Z"/></svg>