<svg id="Layer_1" data-name="Layer 1" xmlns="http://www.w3.org/2000/svg" viewBox="0 0 64 64"><defs><style>.cls-1{fill:#6f6f6f;}.cls-2{fill:#757575;}.cls-3{fill:#8e8e8e;}.cls-4{fill:#7c7c7c;}.cls-5{fill:#6c6c6c;}.cls-6{fill:#b9b9b9;}.cls-7{fill:#878787;}.cls-8{fill:#ababab;}.cls-9{fill:#959595;}.cls-10{fill:#9a9a9a;}.cls-11{fill:#616161;}.cls-12{fill:#656565;}.cls-13{fill:#b3b3b3;}</style></defs><path class="cls-1" d="M61.91,34a2.42,2.42,0,0,1,0,.6c-.41.11-.17.29-.05.46v.14c-.07.05-.08.1,0,.15,0,.4-.06.8-.1,1.2s-.17,1-.25,1.51A2.53,2.53,0,0,1,59.8,40l-1.51.23a9.47,9.47,0,0,0-1.5.19,9.33,9.33,0,0,0-1.5.2c-.34,0-.77-.1-.84.44l-.18.32a1.86,1.86,0,0,0-1.61,0c0-.34.23-.59.3-.9a1.87,1.87,0,0,1,1.55-1.34c.36,0,.72-.06,1.08-.11,1.13-.16,2.26-.33,3.39-.43a.93.93,0,0,0,.89-.63,27.78,27.78,0,0,0,.46-3.13c.28-.23.15-.49.07-.75v-.75a3.38,3.38,0,0,1,1-.08c.27,0,.36.09.36.35S61.66,33.94,61.91,34Z"/><path class="cls-1" d="M4.18,40l-.83-.43a3.68,3.68,0,0,1-.6-.82l-.22-.68-.24-1.5-.07-1c.06,0,.16,0,.16-.07.06-.52.45-.36.75-.38s.29.05.31.26.07.33.28.34c.1.62.22,1.25.3,1.87s.29.94,1,1h.12c1.34.18,2.67.36,4,.52A1.94,1.94,0,0,1,11,40.51a5.8,5.8,0,0,0,.27.62v.23a1.86,1.86,0,0,0-1.53,0l-.19-.32c-.06-.56-.5-.41-.83-.45a8.54,8.54,0,0,0-1.51-.19,8.32,8.32,0,0,0-1.5-.19Z"/><path class="cls-2" d="M61.83,35.05c-.12-.17-.36-.35.05-.46V35Z"/><path class="cls-3" d="M61.82,35.34c-.07-.05-.06-.1,0-.15S61.88,35.3,61.82,35.34Z"/><path class="cls-4" d="M3.22,24.53a3.91,3.91,0,0,1,1-.53,9.72,9.72,0,0,0,1.5-.23,9.59,9.59,0,0,0,1.5-.18,9.77,9.77,0,0,0,1.51-.2c.27-.05.61.09.77-.27.48-1,.48-1-.13-1.61a3.75,3.75,0,0,0-.64-.83,4.44,4.44,0,0,0-.58-.77,8.86,8.86,0,0,0-.93-1.19L7,18.42l-.27-.5c.16-.24.08-.39-.19-.46l0-.15.1,0a1,1,0,0,1,1.38.14c.15.18.22.46.52.49,0,.05.1.08.13.13.61.77,1.22,1.53,1.81,2.31.46.62,1.06,1.19.92,2.07a3.73,3.73,0,0,1-.45,1.34,1.68,1.68,0,0,1-1.33,1.09c-.51.09-1,.14-1.54.21-1.07.14-2.14.31-3.21.42A.79.79,0,0,0,4,26.2c-.11.6-.23,1.2-.29,1.8a6.66,6.66,0,0,0-.09,1.34c0,.36.17.52.54.52h2.4v.3q-.31.15,0,.3c0,.38-.06.75-.07,1.12a28.53,28.53,0,0,0,.21,3.92.36.36,0,0,0,.35.36c1.26.16,2.52.33,3.78.46a2.61,2.61,0,0,1,2.34,1.47,7.22,7.22,0,0,0,.38,1c.11.28.08.64.44.78v0c-.13.21,0,.37.1.55a6.86,6.86,0,0,1,.46,1,28.26,28.26,0,0,1-3.32-.07,5.8,5.8,0,0,1-.27-.62A1.94,1.94,0,0,0,9.19,39.1c-1.34-.16-2.67-.34-4-.52H5.06c-.75,0-.94-.24-1-1s-.2-1.25-.3-1.87c0-.83-.11-1.66-.12-2.49s0-1.59,0-2.38c0-.28-.12-.39-.38-.39H2.08a8.52,8.52,0,0,1,0-1.43l.12-1.5c.09-.5.18-1,.26-1.51l.21-.78Z"/><path class="cls-4" d="M59.79,24a4.24,4.24,0,0,1,1,.52l.48.66c.09.28.17.56.25.83l.1.76a.52.52,0,0,1-.18,0,1,1,0,0,0-1.37.1l0-.11a1.28,1.28,0,0,0-1.44-1.36c-1.09-.05-2.17-.26-3.25-.41a3,3,0,0,1-1.6-.42A3.39,3.39,0,0,1,52.58,22c.12-.16.07-.37.19-.55.75-1.14,1.65-2.15,2.45-3.25.3-.41.74-.75.82-1.31a1.34,1.34,0,0,0-.23-.5l-1.05-1.53c.11-.08.05-.16,0-.26a7.7,7.7,0,0,0-.84-1.13c-.14-.21-.54-.37-.44-.57s.51,0,.78-.06.37-.05.51.13c.28.36.54.72.85,1.05s.41.78.94.77l.2.19a2,2,0,0,0,.38.57A3.45,3.45,0,0,1,57.6,17,3.2,3.2,0,0,1,57,18.42l-.3.39a10,10,0,0,0-.84,1.1,3,3,0,0,0-.59.81,2.85,2.85,0,0,0-.63.79l-.32.36c-.13.16-.24.31-.13.54s.21.47.31.71.5.24.78.27a7.72,7.72,0,0,0,1.51.2,9.34,9.34,0,0,0,1.49.19Z"/><path class="cls-2" d="M60,26.85a1,1,0,0,1,1.37-.1.52.52,0,0,0,.18,0l.16.75A12.5,12.5,0,0,0,61.9,29a9.31,9.31,0,0,0,.08,1.5L62,32l0,1.51-.07.45c-.25-.05-.15-.26-.15-.4s-.09-.37-.36-.35a3.38,3.38,0,0,0-1,.08c0-1.4,0-2.8-.07-4.19a.69.69,0,0,0-.08-.32A16.1,16.1,0,0,0,60,26.85Z"/><path class="cls-2" d="M2.08,30.46H3.2c.26,0,.38.11.38.39,0,.79,0,1.58,0,2.38s.08,1.66.12,2.49c-.21,0-.27-.18-.28-.34s-.11-.28-.31-.26-.69-.14-.75.38c0,0-.1,0-.16.07L2.13,35l-.06-1.5a.26.26,0,0,0,0-.38A8.42,8.42,0,0,0,2,32a6.28,6.28,0,0,0,0-1.5Z"/><path class="cls-3" d="M2.07,33.16a.26.26,0,0,1,0,.38l0,0C2,33.4,2,33.28,2.07,33.16Z"/><path class="cls-3" d="M26.73,2.41l1.5-.21,3-.17h1.5l3,.17,1.51.21,1.49.34a4,4,0,0,1,.9.73,2.89,2.89,0,0,1,.44,1.42,2.36,2.36,0,0,0-1.55-.07,1,1,0,0,0-.92-.77c-.7-.1-1.39-.24-2.1-.3a33.24,33.24,0,0,0-4.35-.16c-1.59.1-3.17.23-4.75.46-.52.08-.89.23-1,.77-.5,0-1-.28-1.47.15a3.19,3.19,0,0,1,.44-1.5,3.47,3.47,0,0,1,.89-.73Z"/><path class="cls-4" d="M60.25,28.81a.69.69,0,0,1,.08.32c.1,1.39.06,2.79.07,4.19v.75c-.15.23,0,.5-.07.75A27.78,27.78,0,0,1,59.87,38a.93.93,0,0,1-.89.63c-1.13.1-2.26.27-3.39.43-.36.05-.72.07-1.08.11A1.87,1.87,0,0,0,53,40.46c-.23,0-.33.2-.42.38a.34.34,0,0,1-.35.22,21.92,21.92,0,0,0-2.69.07c.08-.34.33-.62.38-1l.3-.68a.16.16,0,0,0,.07-.15c.19-.49.4-1,.57-1.46a2.12,2.12,0,0,1,1.75-1.45c.45-.08.92-.12,1.37-.17l3-.4a.36.36,0,0,0,.37-.35c0-.58.14-1.16.15-1.75a41.87,41.87,0,0,0-.05-4.19,3.25,3.25,0,0,1,.77-.08c.48,0,1,0,1.45,0,.33,0,.49-.09.47-.44C60.09,28.94,60.09,28.82,60.25,28.81Z"/><path class="cls-2" d="M49.5,41.13a21.92,21.92,0,0,1,2.69-.07.34.34,0,0,0,.35-.22c.09-.18.19-.35.42-.38-.07.31-.31.56-.3.9A1.64,1.64,0,0,0,53,42.92l2,2.65c0,.3-.11.38-.4.38-.77,0-1.54,0-2.31,0-.11,0-.26-.06-.32,0s.1.18.15.27.26.2.08.37a1.47,1.47,0,0,1-.22-.21c-.77-1-1.56-2-2.32-3.05A2,2,0,0,1,49.5,41.13Z"/><path class="cls-5" d="M55,45.57l-2-2.65a1.64,1.64,0,0,1-.32-1.56,1.86,1.86,0,0,1,1.61,0c0,.21-.22.41,0,.63s.32.38.48.58a3.3,3.3,0,0,0,.56.73,5.34,5.34,0,0,0,.59.76,9.15,9.15,0,0,0,.89,1.16,1.09,1.09,0,0,0,.28.36,3.21,3.21,0,0,1,.57,1.48,3.44,3.44,0,0,1-.46,1.42L57,48.6c-.12-.23-.34-.23-.54-.25a3.05,3.05,0,0,0-1.2.15c.06-.35.36-.56.52-.85s.32-.63.07-1S55.29,45.94,55,45.57Z"/><path class="cls-2" d="M60.33,34.82c0-.25-.08-.52.07-.75C60.48,34.33,60.61,34.59,60.33,34.82Z"/><path class="cls-2" d="M11.24,41.13a28.26,28.26,0,0,0,3.32.07,1.92,1.92,0,0,1-.12,2.06,26.53,26.53,0,0,1-2,2.61c0-.25-.2-.31-.43-.3H9.33a.91.91,0,0,0,.26-.83.85.85,0,0,1,.06-.17c.45-.58.91-1.15,1.35-1.74a1.53,1.53,0,0,0,.24-1.47Z"/><path class="cls-5" d="M11.24,41.36A1.53,1.53,0,0,1,11,42.83c-.44.59-.9,1.16-1.35,1.74a.85.85,0,0,0-.06.17.53.53,0,0,0-.1.06C9,45.4,8.55,46,8.1,46.6a.8.8,0,0,0,0,1c.21.3.4.6.6.9a1,1,0,0,0-.25,0c-.5,0-1-.16-1.48.13l-.13-.1a3.22,3.22,0,0,1-.46-1.41,3.28,3.28,0,0,1,.6-1.5.73.73,0,0,0,.23-.29,8.88,8.88,0,0,0,.92-1.2,4.18,4.18,0,0,0,.58-.75,3.46,3.46,0,0,0,.57-.75c.29-.35.75-.64.45-1.21A1.86,1.86,0,0,1,11.24,41.36Z"/><path class="cls-6" d="M12.44,45.87a26.53,26.53,0,0,0,2-2.61,1.92,1.92,0,0,0,.12-2.06,6.86,6.86,0,0,0-.46-1c-.07-.18-.23-.34-.1-.55.22.59.66.66,1.22.63,1,0,2,0,2.93,0,.44,0,.43,0,.25-.41s-.47-.66-.39-1.11a.47.47,0,0,1,.18.24,15.41,15.41,0,0,0,4.35,5.27,15.17,15.17,0,0,0,8.15,3.2,15,15,0,0,0,4.11-.19,15.37,15.37,0,0,0,7.91-4.07A18.65,18.65,0,0,0,45.29,40a.41.41,0,0,0,.49.31q1.62,0,3.24,0a1.61,1.61,0,0,0,.86-.15c-.05.35-.3.63-.38,1a2,2,0,0,0,.15,2.24c.76,1,1.55,2,2.32,3.05a1.47,1.47,0,0,0,.22.21,2,2,0,0,0,.2.35.25.25,0,0,1,0,.41c-.11.11-.16.28-.32.36-1.63.15-3.27.07-4.91.07H14.32a7.81,7.81,0,0,1-2.41-.14c-.46-.44-.46-.44-.1-.94A6,6,0,0,0,12.44,45.87Z"/><path class="cls-6" d="M18,38.71c-.08.45.23.75.39,1.11s.19.41-.25.41c-1,0-1.95,0-2.93,0-.56,0-1,0-1.22-.63v0c0-.32-.06-.65-.44-.78a7.22,7.22,0,0,1-.38-1,2.61,2.61,0,0,0-2.34-1.47c-1.26-.13-2.52-.3-3.78-.46a.36.36,0,0,1-.35-.36,28.53,28.53,0,0,1-.21-3.92c0-.37.09-.74.07-1.12v-.6a5.74,5.74,0,0,0,.12-1.17c.1-.48.09-.5.59-.56,1.32-.16,2.63-.34,3.94-.51,0,.29.15.29.35.28h4.73c.26,0,.56.07.65-.31,0-.07.13-.06.2-.06a15.85,15.85,0,0,0-.6,5.65,16.25,16.25,0,0,0,.94,4.25A8.7,8.7,0,0,1,18,38.71Z"/><path class="cls-7" d="M23.9,5c.45-.43,1-.2,1.47-.15,0,.38-.07.76-.12,1.14-.08.79-.17,1.59-.26,2.39-.09.07,0,.18-.07.28a5.27,5.27,0,0,1-.35,1.55,3,3,0,0,1-1.64,1A1.81,1.81,0,0,1,21.05,11l-3.53-2.7c-.55-.43-.74-.43-1.33,0a28.88,28.88,0,0,0-4.34,3.61c-.65.63-1.26,1.31-1.85,2A9,9,0,0,0,8.76,15.5,3.68,3.68,0,0,0,8,16.66a.69.69,0,0,0,.1.67c.11.2.35.32.39.57-.3,0-.37-.31-.52-.49a1,1,0,0,0-1.38-.14l-.1,0L6.37,17a3.78,3.78,0,0,1,.45-1.5,1.78,1.78,0,0,0,.38-.57A5.21,5.21,0,0,0,7.89,14l.8-1a1.77,1.77,0,0,0,.45-.53l.59-.62C10.83,10.7,12,9.6,13.21,8.54A2.78,2.78,0,0,0,13.89,8a4.72,4.72,0,0,0,.81-.6l1.4-.88.11,0a2.59,2.59,0,0,1,2.44.68c.17.14.37.26.55.38a1.82,1.82,0,0,0,.58.45,5.08,5.08,0,0,0,.93.73,7.2,7.2,0,0,0,1.13.84.48.48,0,0,0,.7.19l.55-.25a.37.37,0,0,0,.24-.31c.05-.4.1-.81.14-1.22l.12-.67c.12,0,.16-.08,0-.16l0-.67A12.34,12.34,0,0,0,23.9,5Z"/><path class="cls-7" d="M11.24,27.62c-1.31.17-2.62.35-3.94.51-.5.06-.49.08-.59.56a5.74,5.74,0,0,1-.12,1.17H4.19c-.37,0-.51-.16-.54-.52A6.66,6.66,0,0,1,3.74,28c.06-.6.18-1.2.29-1.8a.79.79,0,0,1,.76-.73c1.07-.11,2.14-.28,3.21-.42.51-.07,1-.12,1.54-.21a1.68,1.68,0,0,0,1.33-1.09,3.73,3.73,0,0,0,.45-1.34,2.31,2.31,0,0,0,1,.16,12.61,12.61,0,0,1,2.3.07c-.08.22-.14.46-.24.67a18.06,18.06,0,0,0-1.2,3,2.86,2.86,0,0,1-1.12,1.14l-.23.08-.37.08Z"/><path class="cls-3" d="M14.63,22.64a12.61,12.61,0,0,0-2.3-.07,2.31,2.31,0,0,1-1-.16c.14-.88-.46-1.45-.92-2.07C9.81,19.56,9.2,18.8,8.59,18c0-.05-.09-.08-.13-.13,0-.25-.28-.37-.39-.57a.69.69,0,0,1-.1-.67,3.68,3.68,0,0,1,.79-1.16c.06.21.22.23.41.23h2.4c.21,0,.48,0,.5.3s-.23.36-.36.51a.39.39,0,0,0,0,.61c.5.62,1,1.25,1.45,1.89a12.22,12.22,0,0,1,1.49,2.09A1.77,1.77,0,0,1,14.63,22.64Z"/><path class="cls-8" d="M13.57,38.8c.38.13.39.46.44.78C13.65,39.44,13.68,39.08,13.57,38.8Z"/><path class="cls-7" d="M6.69,17.92a.57.57,0,0,1-.19-.46C6.77,17.53,6.85,17.68,6.69,17.92Z"/><path class="cls-7" d="M6.58,30.16v.3Q6.27,30.31,6.58,30.16Z"/><path class="cls-9" d="M54.76,14.82l1.05,1.53a1.34,1.34,0,0,1,.23.5A2.26,2.26,0,0,1,55,17H53a.84.84,0,0,1-.44-.07.43.43,0,0,0-.09-.28c-.72-.9-1.49-1.75-2.29-2.57a32.63,32.63,0,0,0-2.62-2.36.42.42,0,0,0-.63,0l-3.13,2.44a2.3,2.3,0,0,1-2.64.42,32.42,32.42,0,0,0-3.28-1.37,2.07,2.07,0,0,1-1.41-1.86c-.08-.69-.19-1.38-.29-2.07a.29.29,0,0,0,.24-.41c-.12-.4,0-.47.35-.49a6.65,6.65,0,0,0,2.18-.15,3,3,0,0,1,.16.79,2,2,0,0,0,1,1.86c.25.11.51.19.76.32a2,2,0,0,0,1.38.14,4.09,4.09,0,0,0,1.43-.92c1-.74,2-1.5,2.93-2.25a.8.8,0,0,1,1,0,28.06,28.06,0,0,1,3.81,3.06A46.52,46.52,0,0,1,54.76,14.82Z"/><path class="cls-7" d="M60.25,28.81c-.16,0-.16.13-.15.24,0,.35-.14.45-.47.44-.49,0-1,0-1.45,0a3.25,3.25,0,0,0-.77.08c0-.35-.06-.69-.1-1,0-.15,0-.29-.24-.32-1-.14-1.93-.28-2.91-.37l-.45-.07-.37,0a.32.32,0,0,0-.25-.06,2.45,2.45,0,0,1-2.44-2c-.15-.52-.42-1-.61-1.53a6.63,6.63,0,0,1-.64-1.67h2.5c.31,0,.59,0,.55-.42,0-.07.07-.09.13-.11a3.39,3.39,0,0,0,1.13,2.59,3,3,0,0,0,1.6.42c1.08.15,2.16.36,3.25.41A1.28,1.28,0,0,1,60,26.74l0,.11A16.1,16.1,0,0,1,60.25,28.81Z"/><path class="cls-7" d="M54.76,14.82a46.52,46.52,0,0,0-3.38-3.64,28.06,28.06,0,0,0-3.81-3.06.8.8,0,0,0-1,0c-1,.75-1.94,1.51-2.93,2.25a4.09,4.09,0,0,1-1.43.92,2,2,0,0,1-1.38-.14c-.25-.13-.51-.21-.76-.32a2,2,0,0,1-1-1.86,3,3,0,0,0-.16-.79c0-.44-.11-.88-.12-1.33,0-.69-.25-1.36-.25-2a2.36,2.36,0,0,1,1.55.07,14,14,0,0,0,.25,1.58A8.42,8.42,0,0,0,40.51,8c0,.4.08.81.14,1.22a.46.46,0,0,0,.09.23,1.14,1.14,0,0,0,1.56.07,7.16,7.16,0,0,0,1-.75,5.55,5.55,0,0,0,1-.76,1.89,1.89,0,0,0,.51-.38c.2-.15.41-.28.6-.44a2.55,2.55,0,0,1,2.41-.66l.14,0,1.35.84a4.43,4.43,0,0,0,.82.6,2.75,2.75,0,0,0,.68.54,3.11,3.11,0,0,0,.32.31,40.11,40.11,0,0,1,3,2.85c.71.74,1.35,1.54,2,2.32l.48.74c-.53,0-.66-.48-.94-.77s-.57-.69-.85-1.05c-.14-.18-.33-.14-.51-.13s-.68-.13-.78.06.3.36.44.57a7.7,7.7,0,0,1,.84,1.13C54.81,14.66,54.87,14.74,54.76,14.82Z"/><path class="cls-3" d="M52.58,22c-.06,0-.14,0-.13.11,0,.43-.24.43-.55.42H49.4c-.08,0-.11-.08-.13-.16a1.9,1.9,0,0,1,.41-1.75c.92-1.24,1.88-2.44,2.83-3.66A.84.84,0,0,0,53,17H55a2.26,2.26,0,0,0,1-.16c-.08.56-.52.9-.82,1.31-.8,1.1-1.7,2.11-2.45,3.25C52.65,21.59,52.7,21.8,52.58,22Z"/><path class="cls-10" d="M38.53,4.83c0,.69.23,1.36.25,2.05,0,.45.08.89.12,1.33a6.65,6.65,0,0,1-2.18.15c-.4,0-.47.09-.35.49a.29.29,0,0,1-.24.41c-.1-.75-.21-1.5-.3-2.25a.3.3,0,0,0-.31-.3A13.69,13.69,0,0,0,34,6.57a40.94,40.94,0,0,0-5.31.12c-.38,0-.46.24-.5.56a18.54,18.54,0,0,1-.29,1.94,1.86,1.86,0,0,0-.62-.08H25.41c-.22,0-.36,0-.28-.32,0-.14.12-.36-.14-.43.09-.8.18-1.6.26-2.39.05-.38.08-.76.12-1.14.15-.54.52-.69,1-.77,1.58-.23,3.16-.36,4.75-.46a33.24,33.24,0,0,1,4.35.16c.71.06,1.4.2,2.1.3A1,1,0,0,1,38.53,4.83Z"/><path class="cls-11" d="M26.72,61.59a13.61,13.61,0,0,1-1.5-.36,2.4,2.4,0,0,1-1.31-2,2.28,2.28,0,0,0-.12-.73l-.06-.45a.11.11,0,0,0,0-.15l0-.3a10.93,10.93,0,0,0-.19-1.51c0-.26,0-.52-.09-.77s0-.53-.18-.74a3.79,3.79,0,0,0-.91-.43.3.3,0,0,0-.31.07l-1.28,1a6.52,6.52,0,0,0-1,.75,1.85,1.85,0,0,0-.52.4l-.9.66a2.26,2.26,0,0,1-2.82.06l-.75-.49a6,6,0,0,0-.86-.64l-.61-.49a2.73,2.73,0,0,0-.25-.23,25.92,25.92,0,0,1-2.16-2,.8.8,0,0,0-.74-.76.41.41,0,0,1-.22-.23.79.79,0,0,0-.45-.8c-.09,0-.13.07-.16.13a.23.23,0,0,1-.14-.15,2.84,2.84,0,0,1,1.53-.12c.08,0,.14.08.2.15l1.21,1.23a.48.48,0,0,0,.43.17A21.9,21.9,0,0,0,16,55.45a1.61,1.61,0,0,0,1.5.09,14.49,14.49,0,0,0,1.29-.8,23.42,23.42,0,0,0,2-1.56,1.9,1.9,0,0,1,1.54-.54,3.65,3.65,0,0,1,2,.88,1.18,1.18,0,0,1,.44.92c.19,1.11.3,2.23.51,3.34.14.71.12.72.84.72H38c.56,0,.66-.11.71-.68,0-.33.07-.67.12-1,.13-.92.27-1.84.4-2.76.1-.13.18-.27.28-.39a3.45,3.45,0,0,1,2-1,1.57,1.57,0,0,1,1.4.37c.43.37.9.7,1.36,1,.8.65,1.61,1.28,2.47,1.86a.72.72,0,0,0,.84,0c.27-.18.55-.35.81-.55A10.25,10.25,0,0,0,50,54.06l1.35-1.13c.1,0,.2,0,.3,0a2.44,2.44,0,0,1,1.8.07l-.3.33c-.77.77-1.58,1.48-2.39,2.2l-.62.49-.92.68-.75.49a2.25,2.25,0,0,1-2.75-.1l-.91-.66a1.81,1.81,0,0,0-.51-.4,5.37,5.37,0,0,0-.89-.68L42,54.23a.3.3,0,0,0-.31-.07,3.42,3.42,0,0,0-.91.42,6.36,6.36,0,0,0-.25,1.5,10.92,10.92,0,0,0-.18,1.51,4.8,4.8,0,0,0-.15,1.13,1.13,1.13,0,0,0-.1.51,2.4,2.4,0,0,1-1.41,2l-1.42.33a38.57,38.57,0,0,1-6.62.35l-.9,0-1.5-.11Z"/><path class="cls-6" d="M54.16,27.83c1,.09,1.94.23,2.91.37.2,0,.23.17.24.32,0,.35.07.69.1,1a41.87,41.87,0,0,1,.05,4.19c0,.59-.1,1.17-.15,1.75a.36.36,0,0,1-.37.35l-3,.4c-.45,0-.92.09-1.37.17a2.12,2.12,0,0,0-1.75,1.45c-.17.49-.38,1-.57,1.46-.1,0-.19,0-.07.15l-.3.68a1.61,1.61,0,0,1-.86.15q-1.62,0-3.24,0a.41.41,0,0,1-.49-.31c0-.06.05-.13.09-.2a16.59,16.59,0,0,0,1.39-3.1,15.35,15.35,0,0,0,.66-3.22,18.28,18.28,0,0,0,0-3c-.06-.86-.29-1.69-.42-2.54h6c.16,0,.37.05.36-.24l.37,0C53.81,28,53.94,28.06,54.16,27.83Z"/><path class="cls-8" d="M50.18,39.48c-.12-.12,0-.14.07-.15A.16.16,0,0,1,50.18,39.48Z"/><path class="cls-1" d="M52.06,47.75c.16-.08.21-.25.32-.36a.25.25,0,0,0,0-.41,2,2,0,0,1-.2-.35c.18-.17,0-.26-.08-.37s-.22-.14-.15-.27.21,0,.32,0c.77,0,1.54,0,2.31,0,.29,0,.44-.08.4-.38.3.37.61.74.89,1.12s.1.65-.07,1-.46.5-.52.85a9.17,9.17,0,0,0-.75.9c-1.31.16-2.61,0-3.92.07C51.06,48.86,51.66,48.39,52.06,47.75Z"/><path class="cls-12" d="M54.54,49.4a9.17,9.17,0,0,1,.75-.9,3.05,3.05,0,0,1,1.2-.15c.2,0,.42,0,.54.25l-.33.56-.61.81-.26.31A26.94,26.94,0,0,1,53.4,53a2.44,2.44,0,0,0-1.8-.07c-.1,0-.2,0-.3,0,.13-.13.25-.28.38-.41A32.54,32.54,0,0,0,54.54,49.4Z"/><path class="cls-1" d="M12.44,45.87a6,6,0,0,1-.63.87c-.36.5-.36.5.1.94a7.05,7.05,0,0,0,.85,1l1.49,1.59c-.2,0-.4,0-.6,0a34.85,34.85,0,0,1-3.54-.07A14,14,0,0,1,8.68,48.5c-.2-.3-.39-.6-.6-.9a.8.8,0,0,1,0-1c.45-.61.93-1.2,1.39-1.8a.53.53,0,0,1,.1-.06.91.91,0,0,1-.26.83H12C12.24,45.56,12.41,45.62,12.44,45.87Z"/><path class="cls-12" d="M8.68,48.5a14,14,0,0,0,1.43,1.73,15,15,0,0,0,1.45,1.64l1,1a.48.48,0,0,1-.43-.17l-1.21-1.23c-.06-.07-.12-.15-.2-.15a2.84,2.84,0,0,0-1.53.12c-.47-.44-.83-1-1.27-1.46l-.53-.73L7,48.58c.47-.29,1-.13,1.48-.13A1,1,0,0,1,8.68,48.5Z"/><path class="cls-2" d="M47,28c.13.85.36,1.68.42,2.54a18.28,18.28,0,0,1,0,3,15.35,15.35,0,0,1-.66,3.22,16.59,16.59,0,0,1-1.39,3.1c0,.07-.06.14-.09.2a18.65,18.65,0,0,1-2.58,3.16,15.37,15.37,0,0,1-7.91,4.07,15,15,0,0,1-4.11.19,15.17,15.17,0,0,1-8.15-3.2A15.41,15.41,0,0,1,18.19,39a.47.47,0,0,0-.18-.24,8.7,8.7,0,0,0-.5-1.28,16.25,16.25,0,0,1-.94-4.25,15.85,15.85,0,0,1,.6-5.65l.24-.75a.32.32,0,0,0,.08-.23s.05-.08.07-.13a15.38,15.38,0,0,1,5.69-7.17,15.4,15.4,0,0,1,16.59-.62,15.63,15.63,0,0,1,5.94,6.26A20.09,20.09,0,0,1,47,28ZM32,20.69A11.32,11.32,0,1,0,43.32,32,11.27,11.27,0,0,0,32,20.69Z"/><path class="cls-6" d="M14.25,50.3l-1.49-1.59a7.05,7.05,0,0,1-.85-1,7.81,7.81,0,0,0,2.41.14H47.15c1.64,0,3.28.08,4.91-.07-.4.64-1,1.11-1.44,1.72-.11.1-.23.2-.33.31a34.23,34.23,0,0,1-2.84,2.55.35.35,0,0,1-.52,0c-1.08-.84-2.18-1.64-3.23-2.5a2.51,2.51,0,0,0-3-.19,16.94,16.94,0,0,1-2.49,1,2.29,2.29,0,0,0-1.73,1.78,14.56,14.56,0,0,0-.27,2.19.42.42,0,0,0-.06.25c-.1.7-.19,1.4-.29,2.11,0,.15-.07.26-.24.27-.56.05-1.12.14-1.68.14a41.84,41.84,0,0,1-5.25-.12c-.33,0-.46-.15-.5-.45-.08-.68-.17-1.36-.25-2s-.21-1.35-.27-2a2.21,2.21,0,0,0-1.51-2c-1.14-.41-2.24-.89-3.35-1.37a2,2,0,0,0-2.13.24c-1.14.84-2.28,1.69-3.39,2.58a.55.55,0,0,1-.85,0C15.67,51.6,15,50.94,14.25,50.3Z"/><path class="cls-6" d="M47,28a20.09,20.09,0,0,0-1.23-3.09,15.63,15.63,0,0,0-5.94-6.26,15.4,15.4,0,0,0-16.59.62,15.38,15.38,0,0,0-5.69,7.17s0,.09-.07.13-.21.1-.08.23l-.24.75c-.07,0-.18,0-.2.06-.09.38-.39.31-.65.31H11.59c-.2,0-.39,0-.35-.28h.23c.17.21.28.1.37-.08l.23-.08a.16.16,0,0,0,.19.07,1.26,1.26,0,0,0,.93-1.21,18.06,18.06,0,0,1,1.2-3c.1-.21.16-.45.24-.67a1.77,1.77,0,0,0,0-1.51A12.22,12.22,0,0,0,13.16,19c-.46-.64-.95-1.27-1.45-1.89a.39.39,0,0,1,0-.61c.13-.15.32-.28.36-.51a4.35,4.35,0,0,0,.38-.36,28.32,28.32,0,0,1,4.17-4,.3.3,0,0,1,.45,0q1.72,1.35,3.47,2.66a2.09,2.09,0,0,0,2.35.25A28.68,28.68,0,0,1,26,13.25a2.05,2.05,0,0,0,1.4-1.3,10.72,10.72,0,0,0,.42-2.76,18.54,18.54,0,0,0,.29-1.94c0-.32.12-.51.5-.56A40.94,40.94,0,0,1,34,6.57a13.69,13.69,0,0,1,1.56.14.3.3,0,0,1,.31.3c.09.75.2,1.5.3,2.25s.21,1.38.29,2.07a2.07,2.07,0,0,0,1.41,1.86,32.42,32.42,0,0,1,3.28,1.37,2.3,2.3,0,0,0,2.64-.42l3.13-2.44a.42.42,0,0,1,.63,0,32.63,32.63,0,0,1,2.62,2.36c.8.82,1.57,1.67,2.29,2.57a.43.43,0,0,1,.09.28c-.95,1.22-1.91,2.42-2.83,3.66a1.9,1.9,0,0,0-.41,1.75c0,.08,0,.14.13.16A6.63,6.63,0,0,0,50,24.17c.19.52.46,1,.61,1.53a2.45,2.45,0,0,0,2.44,2,.32.32,0,0,1,.25.06c0,.29-.2.24-.36.24H47Z"/><path class="cls-9" d="M27.86,9.19A10.72,10.72,0,0,1,27.44,12a2.05,2.05,0,0,1-1.4,1.3,28.68,28.68,0,0,0-3.15,1.31,2.09,2.09,0,0,1-2.35-.25Q18.8,13,17.07,11.65a.3.3,0,0,0-.45,0,28.32,28.32,0,0,0-4.17,4,4.35,4.35,0,0,1-.38.36c0-.34-.29-.3-.5-.3H9.17c-.19,0-.35,0-.41-.23A9,9,0,0,1,10,13.86c.59-.69,1.2-1.37,1.85-2a28.88,28.88,0,0,1,4.34-3.61c.59-.39.78-.39,1.33,0L21.05,11a1.81,1.81,0,0,0,1.88.24,3,3,0,0,0,1.64-1,5.27,5.27,0,0,0,.35-1.55c0-.1,0-.21.07-.28.26.07.17.29.14.43-.08.29.06.32.28.32h1.83A1.86,1.86,0,0,1,27.86,9.19Z"/><path class="cls-3" d="M23.59,7.31a.14.14,0,0,1,0-.16C23.75,7.23,23.71,7.28,23.59,7.31Z"/><path class="cls-13" d="M13.19,26.31a1.26,1.26,0,0,1-.93,1.21.16.16,0,0,1-.19-.07A2.86,2.86,0,0,0,13.19,26.31Z"/><path class="cls-13" d="M11.84,27.53c-.09.18-.2.29-.37.08Z"/><path class="cls-6" d="M54.16,27.83c-.22.23-.35.21-.45-.07Z"/><path class="cls-5" d="M14.25,50.3c.71.64,1.42,1.3,2.16,1.91a.55.55,0,0,0,.85,0c1.11-.89,2.25-1.74,3.39-2.58a2,2,0,0,1,2.13-.24c1.11.48,2.21,1,3.35,1.37a2.21,2.21,0,0,1,1.51,2c.06.68.18,1.36.27,2h-2c-.43,0-.86,0-1.15-.38a1.18,1.18,0,0,0-.44-.92,3.65,3.65,0,0,0-2-.88,1.9,1.9,0,0,0-1.54.54,23.42,23.42,0,0,1-2,1.56,14.49,14.49,0,0,1-1.29.8,1.61,1.61,0,0,1-1.5-.09,21.9,21.9,0,0,1-3.45-2.59l-1-1a15,15,0,0,1-1.45-1.64,34.85,34.85,0,0,0,3.54.07C13.85,50.31,14.05,50.3,14.25,50.3Z"/><path class="cls-5" d="M36.18,54.66a14.56,14.56,0,0,1,.27-2.19,2.29,2.29,0,0,1,1.73-1.78,16.94,16.94,0,0,0,2.49-1,2.51,2.51,0,0,1,3,.19c1,.86,2.15,1.66,3.23,2.5a.35.35,0,0,0,.52,0,34.23,34.23,0,0,0,2.84-2.55c.1-.11.22-.21.33-.31,1.31,0,2.61.09,3.92-.07a32.54,32.54,0,0,1-2.86,3.12c-.13.13-.25.28-.38.41L50,54.06a.64.64,0,0,0-.49.23,1.29,1.29,0,0,1-1,.38c-.88,0-1.77,0-2.66,0a1.37,1.37,0,0,1-1-.35.73.73,0,0,0-.59-.26c-.46-.34-.93-.67-1.36-1a1.57,1.57,0,0,0-1.4-.37,3.45,3.45,0,0,0-2,1c-.1.12-.18.26-.28.39a.21.21,0,0,0-.22.21c0,.34-.24.4-.55.4C37.68,54.65,36.93,54.66,36.18,54.66Z"/><path class="cls-12" d="M36.18,54.66c.75,0,1.5,0,2.25,0,.31,0,.52-.06.55-.4a.21.21,0,0,1,.22-.21c-.13.92-.27,1.84-.4,2.76,0,.33-.09.67-.12,1,0,.57-.15.67-.71.68H26.12c-.72,0-.7,0-.84-.72-.21-1.11-.32-2.23-.51-3.34.29.42.72.38,1.15.38h2c.08.69.17,1.37.25,2,0,.3.17.41.5.45a41.84,41.84,0,0,0,5.25.12c.56,0,1.12-.09,1.68-.14.17,0,.22-.12.24-.27.1-.71.19-1.41.29-2.11A.42.42,0,0,1,36.18,54.66Z"/><path class="cls-12" d="M44.24,54.06a.73.73,0,0,1,.59.26,1.37,1.37,0,0,0,1,.35c.89,0,1.78,0,2.66,0a1.29,1.29,0,0,0,1-.38.64.64,0,0,1,.49-.23,10.25,10.25,0,0,1-1.59,1.28c-.26.2-.54.37-.81.55a.72.72,0,0,1-.84,0C45.85,55.34,45,54.71,44.24,54.06Z"/><path class="cls-12" d="M9.9,52.25a2.79,2.79,0,0,1-.61-.67c0-.06.07-.14.16-.13A.79.79,0,0,1,9.9,52.25Z"/><path class="cls-12" d="M10.86,53.24a4.44,4.44,0,0,1-.74-.76A.8.8,0,0,1,10.86,53.24Z"/><path class="cls-5" d="M32,20.69A11.32,11.32,0,1,1,20.64,31.41,11.27,11.27,0,0,1,32,20.69Zm2.24,20.83a3.62,3.62,0,0,0,1.27-.4l.22-.08a5.58,5.58,0,0,0,1.51-.79,2.88,2.88,0,0,0,.76-.53,4,4,0,0,0,.84-.75,3.66,3.66,0,0,0,.75-.82A8.21,8.21,0,0,0,41.29,35a5.88,5.88,0,0,0,.37-1.5A4.77,4.77,0,0,0,41.77,32a5.73,5.73,0,0,0-.1-1.49A5.2,5.2,0,0,0,41.31,29a5.47,5.47,0,0,0-.62-1.5,2.1,2.1,0,0,0-.42-.72,3,3,0,0,0-.54-.79,4.7,4.7,0,0,0-1-1.07,1.62,1.62,0,0,0-.49-.45,4.08,4.08,0,0,0-1-.75A5.52,5.52,0,0,0,35.84,23l-.16-.07a4.86,4.86,0,0,0-1.43-.45,5.56,5.56,0,0,0-1.52-.25,5.72,5.72,0,0,0-1.49,0,6,6,0,0,0-1.58.25,5.3,5.3,0,0,0-1.36.45.15.15,0,0,0-.16.07,5.23,5.23,0,0,0-1.42.75,3.5,3.5,0,0,0-1,.75,1.47,1.47,0,0,0-.51.45,4.66,4.66,0,0,0-1,1.07,2.94,2.94,0,0,0-.55.79,2.1,2.1,0,0,0-.41.71,5.47,5.47,0,0,0-.62,1.5,5.2,5.2,0,0,0-.36,1.51,5.77,5.77,0,0,0-.1,1.5,5.48,5.48,0,0,0,.12,1.51,5.22,5.22,0,0,0,.37,1.51,8.32,8.32,0,0,0,1.68,3.09,3.78,3.78,0,0,0,.84.9,1.94,1.94,0,0,0,.56.51,3.47,3.47,0,0,0,.94.68,5.48,5.48,0,0,0,1.51.8l.23.08a4,4,0,0,0,1.27.4,5.06,5.06,0,0,0,1.5.24,5.16,5.16,0,0,0,1.52,0A5.11,5.11,0,0,0,34.25,41.52Z"/><path class="cls-13" d="M17.41,26.78c-.13-.13-.09-.2.08-.23A.32.32,0,0,1,17.41,26.78Z"/></svg>