<svg id="Layer_1" data-name="Layer 1" xmlns="http://www.w3.org/2000/svg" viewBox="0 0 64 64"><defs><style>.cls-1{fill:#fdc559;}.cls-2{fill:#feaf65;}.cls-3{fill:#fd8e6a;}.cls-4{fill:#e4ad5e;}.cls-5{fill:#fad36e;}.cls-6{fill:#eb8b60;}.cls-7{fill:#fe9a69;}.cls-8{fill:#fea567;}.cls-9{fill:#f9be6b;}.cls-10{fill:#febf58;}.cls-11{fill:#fdb857;}.cls-12{fill:#fd9d5d;}.cls-13{fill:#fdae58;}.cls-14{fill:#fda65a;}.cls-15{fill:#fd9960;}</style></defs><path class="cls-1" d="M60.84,34.84a1.61,1.61,0,0,1-.83.54V35c0-.29-.12-.42-.4-.41-.24-.23-.47,0-.69,0a21,21,0,0,1-2,.57c-.93.16-1.89.52-2.74-.3l-7.93-7.52c-1.51-1.45-2.95-3-4.53-4.35-1.15-1-2.16-2.16-3.34-3.15a6.83,6.83,0,0,1-2-2.38c-.08-.17-.07-.45-.35-.43s-.24.29-.35.45c-.35.48-.31,1.19-.89,1.53a44.81,44.81,0,0,1,.81-4.46A27.73,27.73,0,0,1,36.89,9.9a5,5,0,0,1,1.89-2.78c.07,0,.09-.19.14-.29a3,3,0,0,1,1.34.26c.1.47.52.72.72,1.13a43.61,43.61,0,0,1,1.84,4.93c1,3,1.91,6,2.87,8.94a4.45,4.45,0,0,0,2.66,3c3.29,1.24,6.51,2.63,9.72,4.06,2.08.93,2.74,1.86,2.77,4.15C60.85,33.83,60.62,34.33,60.84,34.84Z"/><path class="cls-2" d="M11.86,33.89c.88-.12,1.37.18,1.74,1.11.65,1.63,1.1,3.33,1.63,5,.08.28.19.55.26.83a2.29,2.29,0,0,0,1.59,1.69c1.46.51,2.88,1.14,4.29,1.79a1.52,1.52,0,0,1,1,1.47,6.72,6.72,0,0,1-3.21,1.08,8.2,8.2,0,0,1-7.07-3.25,6.2,6.2,0,0,1-1.68-4.56,15.07,15.07,0,0,1,1.13-4.22C11.66,34.52,11.92,34.27,11.86,33.89Z"/><path class="cls-3" d="M15.48,50.78c-.57,1.94-1.17,3.88-1.89,5.77a3.3,3.3,0,0,1-.19.43,1.35,1.35,0,0,1-1.21.83A1.32,1.32,0,0,1,11,56.92a37.87,37.87,0,0,1-1.56-4.37,17,17,0,0,1-.48-1.69A2.43,2.43,0,0,0,7.22,49C5.8,48.45,4.38,47.91,3,47.27a1.61,1.61,0,0,1,0-3,37,37,0,0,1,3.81-1.54,2,2,0,0,0,.27,2.19,13.9,13.9,0,0,0,5.7,5.39C13.66,50.74,14.48,51.24,15.48,50.78Z"/><path class="cls-4" d="M38.92,6.83c-.05.1-.07.24-.14.29A5,5,0,0,0,36.89,9.9a27.73,27.73,0,0,0-1.36,4.64c-.29.05-.3.31-.37.51-.23.7-.45,1.41-.66,2.12-.52,1.73-1,3.48-1.54,5.22-.3,0-.35.31-.46.52a6.83,6.83,0,0,1-3,2.92c-.91.44-1.87.76-2.82,1.11a6.87,6.87,0,0,0-2.39,1.26,9.19,9.19,0,0,0-2.27.93c-.27.14-.62.18-.71.55a2.77,2.77,0,0,0-1.35.41c-.73.14-1.23.71-1.9.95.27-1,.27-1-.71-.89,0,0-.08,0-.11-.07.57-1,1.66-1.27,2.59-1.71,2.79-1.31,5.67-2.37,8.56-3.44a5.29,5.29,0,0,0,3.46-3.68c1.21-4.32,2.46-8.64,4.09-12.83a4.36,4.36,0,0,1,1.58-2.28A2.91,2.91,0,0,1,38.92,6.83Z"/><path class="cls-5" d="M60.84,34.84c-.22-.51,0-1,0-1.51,0-2.29-.69-3.22-2.77-4.15-3.21-1.43-6.43-2.82-9.72-4.06a4.45,4.45,0,0,1-2.66-3c-1-3-1.88-6-2.87-8.94A43.61,43.61,0,0,0,41,8.22c-.2-.41-.62-.66-.72-1.13a1.16,1.16,0,0,0-.74-.8c-.42-.19-.85-.36-1.28-.54a2.78,2.78,0,0,1,3.26.81,10.84,10.84,0,0,1,1.72,3.77q1.8,5.57,3.5,11.16a4.82,4.82,0,0,0,3.12,3.27c3.4,1.22,6.7,2.67,10,4.18A3.56,3.56,0,0,1,60.84,34.84Z"/><path class="cls-5" d="M16.26,5.18a1,1,0,0,1,1.51.65c.41,1.14.81,2.28,1.11,3.45a2.68,2.68,0,0,0,2,2.22,15.82,15.82,0,0,1,2.41,1,1.13,1.13,0,0,1,.75,1.1,1.11,1.11,0,0,1-.77,1.08l-2.5,1a.87.87,0,0,0-.58-.51,7,7,0,0,1-2.8-1.91c-.87-1-1.94-1.74-2.73-2.79.25-.86.47-1.72.75-2.57a6.27,6.27,0,0,1,1-2.37C16.62,5.33,16.47,5.22,16.26,5.18Z"/><path class="cls-6" d="M17.26,30.08s.07.07.11.07c1-.09,1-.09.71.89a2.83,2.83,0,0,0-.31,1.61,3.24,3.24,0,0,0,2,2.32c3.14,1.51,6.43,2.66,9.63,4.05a5.45,5.45,0,0,1,2.87,2.64c1,2.05,1.34,4.32,2.21,6.42.78,2.37,1.54,4.75,2.36,7.11a5.07,5.07,0,0,0,2.34,3.25.58.58,0,0,1,.31.49,2.55,2.55,0,0,1-2.56-1.25,10.49,10.49,0,0,1-1.35-3A120.15,120.15,0,0,1,31.82,43a5.11,5.11,0,0,0-3.41-3.52c-3.28-1.31-6.59-2.52-9.78-4A3.54,3.54,0,0,1,17.26,30.08Z"/><path class="cls-7" d="M15.48,50.78c-1,.46-1.82,0-2.67-.46a13.9,13.9,0,0,1-5.7-5.39,2,2,0,0,1-.27-2.19,3,3,0,0,0,1.94-1.56c.38-.08.43-.4.52-.71a5.23,5.23,0,0,1,.53-1.59,9.22,9.22,0,0,1-.78,3,1.56,1.56,0,0,0,0,1.35A10.8,10.8,0,0,0,14,48.11a2.91,2.91,0,0,0,2.33.43c1.09-.36,2.23-.55,3.29-1a.3.3,0,0,1,.37,0,11.67,11.67,0,0,1-2.32,1c-.36.15-.79.18-.93.65A2.37,2.37,0,0,0,15.48,50.78Z"/><path class="cls-8" d="M20,47.54a.3.3,0,0,0-.37,0c-1.06.47-2.2.66-3.29,1A2.91,2.91,0,0,1,14,48.11,10.8,10.8,0,0,1,9.1,43.25a1.56,1.56,0,0,1,0-1.35,9.22,9.22,0,0,0,.78-3v-.27c.16,0,.3-.08.13-.27v-.27c.35-.1.32-.42.4-.68l.14-.94c.15,0,.29-.08.13-.28v-.26a.3.3,0,0,0,.27-.28v-.4c.36-.2.53-.45.2-.82a1,1,0,0,1,.75-.52c.06.38-.2.63-.33.94a15.07,15.07,0,0,0-1.13,4.22,6.2,6.2,0,0,0,1.68,4.56,8.2,8.2,0,0,0,7.07,3.25,6.72,6.72,0,0,0,3.21-1.08.58.58,0,0,1-.1.54l-.12.27a.56.56,0,0,1-.3.4l-.1,0c-.44-.3-.71,0-.95.3Z"/><path class="cls-2" d="M18.94,17.74a13.87,13.87,0,0,1-.67,2.1c-.25-.21-.19-.5-.18-.76a.76.76,0,0,0-.48-.82,20.36,20.36,0,0,1-3.35-1.55,3,3,0,0,0-1.35-.92,15.76,15.76,0,0,1-3.08-1.38c0-.49-.16-1.07.4-1.39a9.43,9.43,0,0,1,2.44-1,1.38,1.38,0,0,0,.51,1.12A10.46,10.46,0,0,0,17,15.65C18.06,16,18.88,16.49,18.94,17.74Z"/><path class="cls-3" d="M39.46,58.93a.58.58,0,0,0-.31-.49,5.07,5.07,0,0,1-2.34-3.25c-.82-2.36-1.58-4.74-2.36-7.11.62.33.7,1,.93,1.55a9.43,9.43,0,0,0,4.72,5.3c1.1.5,1.16.7,1,1.94a2.81,2.81,0,0,0,0,.41v.94a2,2,0,0,1-1.22.68l-.18,0Z"/><path class="cls-9" d="M18.94,17.74c-.06-1.25-.88-1.72-2-2.09a10.46,10.46,0,0,1-3.81-2.56A1.38,1.38,0,0,1,12.67,12c.77-.37,1.67-.56,2-1.49.79,1,1.86,1.83,2.73,2.79a7,7,0,0,0,2.8,1.91.87.87,0,0,1,.58.51A2.36,2.36,0,0,0,18.94,17.74Z"/><path class="cls-8" d="M14.26,16.71a20.36,20.36,0,0,0,3.35,1.55.76.76,0,0,1,.48.82c0,.26-.07.55.18.76a8,8,0,0,1-.57,1.64,1,1,0,0,1-.94.75,1,1,0,0,1-1-.79A35.22,35.22,0,0,1,14.26,16.71Z"/><path class="cls-4" d="M60,35v.42c-2.63,1.27-5.36,2.31-8.09,3.37-1.06.41-2.16.73-3.18,1.24a.6.6,0,0,1-.36-.3c.41-.63,1.12-.77,1.72-1.1.42-.22,1-.17,1.26-.65l.94-.14a.3.3,0,0,0,.28-.27,3.34,3.34,0,0,0,.91-.17A33.54,33.54,0,0,1,56.8,36,8.91,8.91,0,0,1,60,35Z"/><path class="cls-2" d="M48.38,39.69a.6.6,0,0,0,.36.3l-.78.64a2.74,2.74,0,0,0-1.73,1.82,15.74,15.74,0,0,0-.58,1.92c-.36,1.49-1,2.93-.79,4.51-.42,1.62-1,3.18-1.54,4.75-.38-.28-.2-.64-.13-1,.23-1.16.48-2.33.73-3.49l.67-3.24a14.38,14.38,0,0,0,.82-3.66c.23,0,.28-.25.41-.39A6.59,6.59,0,0,1,48.38,39.69Z"/><path class="cls-4" d="M14.7,10.48c-.36.93-1.26,1.12-2,1.49a9.43,9.43,0,0,0-2.44,1c-.56.32-.36.9-.4,1.39a1.09,1.09,0,0,1,.27-1.87c1-.44,1.92-.85,2.91-1.21a2.09,2.09,0,0,0,1.43-1.54A33.19,33.19,0,0,1,15.64,6c.13-.33.24-.68.62-.83.21,0,.36.15.18.36a6.27,6.27,0,0,0-1,2.37C15.17,8.76,15,9.62,14.7,10.48Z"/><path class="cls-7" d="M43.92,49.16c-.25,1.16-.5,2.33-.73,3.49-.07.34-.25.7.13,1l-.11.27-.11.26c-.51,1.43-.79,3-2,4.06v-.94c.25-.05.29-.26.35-.45.69-2.42,1.39-4.84,2.08-7.26C43.66,49.45,43.66,49.18,43.92,49.16Z"/><path class="cls-9" d="M44.86,48.88c-.19-1.58.43-3,.79-4.51a15.74,15.74,0,0,1,.58-1.92A2.74,2.74,0,0,1,48,40.63c-1.13,1.26-1.31,2.93-1.86,4.43C45.64,46.32,45.27,47.61,44.86,48.88Z"/><path class="cls-6" d="M10,38.07v.27l-.13.27v.27a5.23,5.23,0,0,0-.53,1.59c-.09.31-.14.63-.52.71.55-2,1.12-4,1.86-5.9a1.56,1.56,0,0,1,.4-.76l-.13.71v.4a.3.3,0,0,0-.27.28v.26l-.13.28c0,.31-.1.62-.14.94C10,37.49,10.05,37.81,10,38.07Z"/><path class="cls-6" d="M20,47.54l.81-.27c.18,0,.36-.19.54,0a37.49,37.49,0,0,1-4.6,1.86c.14-.47.57-.5.93-.65A11.67,11.67,0,0,0,20,47.54Z"/><path class="cls-9" d="M38.24,5.75c.43.18.86.35,1.28.54a1.16,1.16,0,0,1,.74.8,3,3,0,0,0-1.34-.26,2.91,2.91,0,0,0-1.38-.69A1.05,1.05,0,0,1,38.24,5.75Z"/><path class="cls-7" d="M21.33,47.28c-.18-.2-.36,0-.54,0,.24-.33.51-.6.95-.3l-.14.17Z"/><path class="cls-7" d="M10.91,35.23l.13-.71.07-.11C11.44,34.78,11.27,35,10.91,35.23Z"/><path class="cls-7" d="M22.14,46.59l.12-.27A.24.24,0,0,1,22.14,46.59Z"/><path class="cls-2" d="M43.1,54.16l.11-.26Z"/><path class="cls-6" d="M21.6,47.14l.14-.17.1,0A.22.22,0,0,1,21.6,47.14Z"/><path class="cls-6" d="M39.67,58.92l.18,0C39.8,59,39.74,59,39.67,58.92Z"/><path class="cls-10" d="M34.72,19c.58-.34.54-1.05.89-1.53.11-.16.09-.43.35-.45s.27.26.35.43a6.83,6.83,0,0,0,2,2.38c1.18,1,2.19,2.14,3.34,3.15,1.58,1.38,3,2.9,4.53,4.35l7.93,7.52c.85.82,1.81.46,2.74.3a21,21,0,0,0,2-.57c.22-.06.45-.26.69,0-.27.33-.7.29-1,.44a50.32,50.32,0,0,1-6.65,2.21,3,3,0,0,1-2.64-.38,19.58,19.58,0,0,1-2.75-2.15c-1.32-1.29-2.64-2.57-4-3.84-2.47-2.36-5-4.7-7.44-7a1.49,1.49,0,0,1-.5-.78A9.68,9.68,0,0,1,34.72,19Z"/><path class="cls-11" d="M34.72,19a9.68,9.68,0,0,0-.11,4,1.49,1.49,0,0,0,.5.78c2.48,2.34,5,4.68,7.44,7,1.34,1.27,2.66,2.55,4,3.84a19.58,19.58,0,0,0,2.75,2.15,3,3,0,0,0,2.64.38A50.32,50.32,0,0,0,58.57,35c.34-.15.77-.11,1-.44.28,0,.41.12.4.41A8.91,8.91,0,0,0,56.8,36a33.54,33.54,0,0,0-3.31,1.32,3.34,3.34,0,0,1-.91.17.3.3,0,0,0-.28.27l-.94.14c-.78.22-1.56.42-2.33.66a2.84,2.84,0,0,1-3.19-.49,5.43,5.43,0,0,0-1.09-.79c-1.8-1.1-3.56-2.27-5.32-3.43-2-1.35-4.11-2.65-6.12-4-.89-.61-1.8-1.18-2.72-1.75-.5-.32-.61-.68-.26-1.18.08-.11.22-.25.07-.41s-.26-.28,0-.5A7.09,7.09,0,0,0,33,22.39c.51-1.74,1-3.49,1.54-5.22.21-.71.43-1.42.66-2.12.07-.2.08-.46.37-.51A44.81,44.81,0,0,0,34.72,19Z"/><path class="cls-12" d="M43.92,49.16c-.26,0-.26.29-.41.41-.27-.37-.16-.92-.66-1.2-2.37-1.34-4.67-2.79-7-4.19a8.24,8.24,0,0,1-2.71-2.64,7.89,7.89,0,0,0-3.41-3c-1.64-.72-3.32-1.39-5-2.12A33.7,33.7,0,0,1,19.65,34a2,2,0,0,1-.58-2.86c.26-.41.71-.63.91-1.07a2.77,2.77,0,0,1,1.35-.41c.47-.09.85-.09.91.56a1,1,0,0,0,.59.7,44.57,44.57,0,0,1,3.9,2.65c2.16,1.39,4.4,2.67,6.53,4.12,1.2.82,2.43,1.59,3.64,2.37,2.32,1.51,4.69,2.92,7,4.37a1,1,0,0,1,.51.82c0,.22,0,.46.14.65Z"/><path class="cls-13" d="M33,22.39A7.09,7.09,0,0,1,30.41,26c-.27.22-.27.21,0,.5s0,.3-.07.41c-.35.5-.24.86.26,1.18.92.57,1.83,1.14,2.72,1.75,2,1.38,4.09,2.68,6.12,4,1.76,1.16,3.52,2.33,5.32,3.43a5.43,5.43,0,0,1,1.09.79A2.84,2.84,0,0,0,49,38.6c.77-.24,1.55-.44,2.33-.66-.28.48-.84.43-1.26.65-.6.33-1.31.47-1.72,1.1a6.59,6.59,0,0,0-2.56,2.18c-.13.14-.18.36-.41.39a.62.62,0,0,0-.33-.48c-1-.5-1.79-1.2-2.7-1.78-2.15-1.35-4.32-2.67-6.41-4.1-1.77-1.19-3.62-2.26-5.35-3.51-1.35-1-2.83-1.82-4.19-2.81-.77-.56-.74-.69.07-1.28.36-.26.86-.37,1.15-.87a16,16,0,0,0-3.34.77,6.87,6.87,0,0,1,2.39-1.26c.95-.35,1.91-.67,2.82-1.11a6.83,6.83,0,0,0,3-2.92C32.61,22.7,32.66,22.43,33,22.39Z"/><path class="cls-14" d="M24.31,28.2a16,16,0,0,1,3.34-.77c-.29.5-.79.61-1.15.87-.81.59-.84.72-.07,1.28,1.36,1,2.84,1.83,4.19,2.81,1.73,1.25,3.58,2.32,5.35,3.51,2.09,1.43,4.26,2.75,6.41,4.1.91.58,1.74,1.28,2.7,1.78a.62.62,0,0,1,.33.48,14.38,14.38,0,0,1-.82,3.66c-.17-.19-.12-.43-.14-.65a1,1,0,0,0-.51-.82c-2.35-1.45-4.72-2.86-7-4.37-1.21-.78-2.44-1.55-3.64-2.37-2.13-1.45-4.37-2.73-6.53-4.12a44.57,44.57,0,0,0-3.9-2.65,1,1,0,0,1-.59-.7c-.06-.65-.44-.65-.91-.56.09-.37.44-.41.71-.55A9.19,9.19,0,0,1,24.31,28.2Z"/><path class="cls-15" d="M20,30.09c-.2.44-.65.66-.91,1.07A2,2,0,0,0,19.65,34a33.7,33.7,0,0,0,5.12,2.42c1.64.73,3.32,1.4,5,2.12a7.89,7.89,0,0,1,3.41,3,8.24,8.24,0,0,0,2.71,2.64c2.33,1.4,4.63,2.85,7,4.19.5.28.39.83.66,1.2-.69,2.42-1.39,4.84-2.08,7.26-.06.19-.1.4-.35.45a2.81,2.81,0,0,1,0-.41c.17-1.24.11-1.44-1-1.94a9.43,9.43,0,0,1-4.72-5.3c-.23-.55-.31-1.22-.93-1.55-.87-2.1-1.24-4.37-2.21-6.42A5.45,5.45,0,0,0,29.37,39c-3.2-1.39-6.49-2.54-9.63-4.05a3.24,3.24,0,0,1-2-2.32A2.83,2.83,0,0,1,18.08,31C18.75,30.8,19.25,30.23,20,30.09Z"/><path class="cls-7" d="M10,38.07c.08-.26.06-.58.4-.68C10.29,37.65,10.32,38,10,38.07Z"/><path class="cls-7" d="M10.51,36.45l.13-.28C10.8,36.37,10.66,36.41,10.51,36.45Z"/><path class="cls-7" d="M9.83,38.61l.13-.27C10.13,38.53,10,38.58,9.83,38.61Z"/><path class="cls-7" d="M10.64,35.91a.3.3,0,0,1,.27-.28A.3.3,0,0,1,10.64,35.91Z"/><path class="cls-13" d="M52.3,37.8a.3.3,0,0,1,.28-.27A.3.3,0,0,1,52.3,37.8Z"/></svg>